<?xml version="1.0" standalone="no"?>
<!DOCTYPE svg PUBLIC "-//W3C//DTD SVG 1.1//EN" "http://www.w3.org/Graphics/SVG/1.1/DTD/svg11.dtd" >
<!--
2013-9-30: Created.
-->
<svg>
<metadata>
Created by iconfont
</metadata>
<defs>

<font id="iconfont" horiz-adv-x="1024" >
  <font-face
    font-family="iconfont"
    font-weight="500"
    font-stretch="normal"
    units-per-em="1024"
    ascent="896"
    descent="-128"
  />
    <missing-glyph />
    
    <glyph glyph-name="x" unicode="x" horiz-adv-x="1001"
d="M281 543q-27 -1 -53 -1h-83q-18 0 -36.5 -6t-32.5 -18.5t-23 -32t-9 -45.5v-76h912v41q0 16 -0.5 30t-0.5 18q0 13 -5 29t-17 29.5t-31.5 22.5t-49.5 9h-133v-97h-438v97zM955 310v-52q0 -23 0.5 -52t0.5 -58t-10.5 -47.5t-26 -30t-33 -16t-31.5 -4.5q-14 -1 -29.5 -0.5
t-29.5 0.5h-32l-45 128h-439l-44 -128h-29h-34q-20 0 -45 1q-25 0 -41 9.5t-25.5 23t-13.5 29.5t-4 30v167h911zM163 247q-12 0 -21 -8.5t-9 -21.5t9 -21.5t21 -8.5q13 0 22 8.5t9 21.5t-9 21.5t-22 8.5zM316 123q-8 -26 -14 -48q-5 -19 -10.5 -37t-7.5 -25t-3 -15t1 -14.5
t9.5 -10.5t21.5 -4h37h67h81h80h64h36q23 0 34 12t2 38q-5 13 -9.5 30.5t-9.5 34.5q-5 19 -11 39h-368zM336 498v228q0 11 2.5 23t10 21.5t20.5 15.5t34 6h188q31 0 51.5 -14.5t20.5 -52.5v-227h-327z" />
    

    
    <glyph glyph-name="banbenzhongxin" unicode="&#58900;" d="M714.586 744.113v-272.419H311.414V744.113h403.172m33.811 49.54H277.603a15.75 15.75 0 0 1-11.128-4.601 15.738 15.738 0 0 1-4.601-11.101v-340.095a15.74 15.74 0 0 1 4.601-11.102 15.754 15.754 0 0 1 11.128-4.602h470.795c4.173 0 8.187 1.658 11.129 4.602a15.741 15.741 0 0 1 4.601 11.102V777.951c0 4.146-1.659 8.159-4.601 11.101a15.756 15.756 0 0 1-11.13 4.601z m0 0M604.163 657.979h49.594v-195.434h-49.594zM808.959-28.098H216.988c-65.59 0-118.983 53.393-118.983 119.035v583.68c0 65.644 53.393 119.036 118.983 119.036h592.025c65.59 0 118.982-53.392 118.982-119.036v-583.68c0-65.642-53.392-119.035-119.036-119.035zM216.988 744.113c-38.306 0-69.442-31.19-69.442-69.496v-583.68c0-38.332 31.136-69.496 69.442-69.496h591.971c38.359 0 69.496 31.164 69.496 69.496l0.054 583.68c0 38.306-31.19 69.496-69.496 69.496H216.988z m0 0"  horiz-adv-x="1024" />

    
    <glyph glyph-name="NEW" unicode="&#58901;" d="M959.333 266.024c0-53.819-44.034-97.854-97.854-97.854H163.896c-53.82 0-97.855 44.035-97.855 97.854v233.08c0 53.82 44.035 97.855 97.855 97.855h697.583c53.82 0 97.854-44.035 97.854-97.855v-233.08zM157.621 484.25h35.382L310.37 313.486h1.291V484.25h35.069v-229.613h-34.092l-118.676 172.7h-1.291v-172.701H157.62V484.25zM398.478 484.25h164.979v-29.905H433.546v-66.893h122.2v-29.913h-122.2v-72.997h135.39v-29.905H398.478V484.25zM590.151 484.25h39.554l44.698-178.806h1.274l46.968 178.806h36.656l46.951-178.806h1.291l44.698 178.806h39.553l-66.246-229.613h-37.302L741.61 431.839h-1.273l-46.638-177.202h-37.632L590.151 484.25z"  horiz-adv-x="1024" />

    
    <glyph glyph-name="canyinruanjian" unicode="&#58902;" d="M443.498 435.066H116.774c-10.049 0-18.16 8.135-18.16 18.183v326.7c0 10.048 8.111 18.159 18.16 18.159h326.724c10.001 0 18.136-8.111 18.136-18.159v-326.7c0-10.048-8.135-18.183-18.136-18.183z m-308.589 36.318h290.405v290.43H134.909v-290.43z m0 0M879.131 435.066H552.408c-10 0-18.185 8.135-18.185 18.183v326.7c0 10.048 8.185 18.159 18.185 18.159h326.723c10.026 0 18.137-8.111 18.137-18.159v-326.7c0-10.048-8.111-18.183-18.137-18.183z m-308.587 36.318h290.452v290.43H570.544v-290.43zM443.498-0.573H116.774c-10.049 0-18.16 8.134-18.16 18.184V344.31c0 10.025 8.111 18.159 18.16 18.159h326.724c10.001 0 18.136-8.134 18.136-18.159v-326.7c0-10.049-8.135-18.183-18.136-18.183z m-308.589 36.317h290.405V326.175H134.909v-290.431z m0 0M895.545 362.469c-69.623 0-126.086-56.463-126.086-126.109v-156.592c0-5.741 2.271-11.293 6.315-15.359 4.115-4.067 9.617-6.364 15.407-6.364h82.638v-108.716c0-12.01 9.714-21.748 21.726-21.748 5.789 0 11.34 2.272 15.406 6.363a21.782 21.782 0 0 1 6.364 15.385V340.745c0 11.962-9.711 21.724-21.77 21.724z m-82.614-260.93v134.82c0 21.915 8.708 42.897 24.284 58.426 10.145 10.216 22.872 17.131 36.604 20.91v-214.156h-60.888zM634.639 362.469c-55.267 0-100.008-44.789-100.008-100.031v-52.182c0-47.753 33.496-87.542 78.26-97.494v-163.434c0-12.01 9.763-21.748 21.748-21.748 12.01 0 21.749 9.738 21.749 21.748V112.762c44.74 9.928 78.283 49.741 78.283 97.494v52.182c0 55.242-44.789 100.031-100.032 100.031z m56.536-152.213c0-31.222-25.337-56.534-56.536-56.534-31.27 0-56.559 25.313-56.559 56.534v52.182a56.59 56.59 0 0 0 16.556 40.003c10.6 10.575 25.026 16.557 40.003 16.557 14.978 0 29.38-5.981 39.98-16.557 10.551-10.599 16.556-25.002 16.556-40.003v-52.182z"  horiz-adv-x="1024" />

    
    <glyph glyph-name="daijinquan" unicode="&#58903;" d="M98.206 196.357c24.56 0.837 38.262 10.091 53.835 28.781 11.266 13.473 17.306 29.178 17.973 46.791 0.816 22.35-6.499 41.775-21.914 57.937-15.284 16.002-27.764 23.722-49.845 24.341-0.11 1.571-0.239 2.646-0.239 3.739-0.01 50.809-0.09 94.954 0.029 145.765 0.08 25.455 16.062 46.134 39.905 51.884 4.647 1.116 9.592 1.493 14.389 1.493 243.647 0.061 480.646 0.061 724.294 0.042 31.902 0 44.739-15.685 44.819-47.609 0.119-50.173 0-100.328 0.108-150.539 0.011-3.82-1.063-5.035-4.935-5.215-41.795-2.09-65.271-37.954-64.215-79.949 1.045-41.595 22.529-74.035 64.354-77.021 3.435-0.238 4.807-1.074 4.796-4.896-0.146-50.492 0.032-100.966-0.146-151.439-0.091-27.286-8.081-41.655-34.253-46.272-3.821-0.679-7.781-0.679-11.684-0.679-242.869-0.039-479.085 0.102-721.945-0.198-29.604-0.019-49.715 19.604-54.145 41.279-0.805 3.96-1.323 8.06-1.323 12.079-0.081 50.972-0.06 95.254-0.06 146.226 0.012 0.895 0.101 1.832 0.202 3.46z m281.7-157.148c2.179-0.101 3.721-0.241 5.254-0.241 154.581 0 309.135 0 463.708 0.042 3.403 0 6.927 0.158 10.212 0.995 12.349 3.184 19.712 13.435 19.732 27.346 0.09 27.344-0.081 54.693 0.149 82.039 0.04 4.438-1.412 6.527-5.324 8.397-50.932 24.462-80.914 80.367-72.167 136.174 7.116 45.416 31.833 78.558 72.992 99.232 3.195 1.594 4.52 3.289 4.478 7.037-0.179 27.194-0.079 54.4-0.108 81.588 0 19.066-10.549 29.733-29.465 29.753H385.199c-1.642 0-3.303-0.157-5.293-0.257 0-12.917 0.069-25.396-0.021-37.876-0.05-8.597-4.916-13.93-13.414-14.248-8.438-0.299-16.877-0.28-25.316 0-8.558 0.277-13.394 5.553-13.533 14.151-0.08 5.951-0.009 11.882-0.009 17.812v20.142c-1.822 0.121-3.046 0.278-4.27 0.278-50.473 0-100.946 0-151.439-0.038-2.785 0-5.652-0.201-8.338-0.877-12.529-3.243-19.864-13.294-19.883-27.206-0.06-27.347 0.11-54.714-0.149-82.043-0.03-4.605 1.383-6.757 5.523-8.732 50.512-24.317 80.466-80.084 72.028-135.374-6.967-45.656-31.686-78.954-72.923-99.792-3.404-1.712-4.607-3.623-4.597-7.423 0.179-27.047 0.099-54.076 0.099-81.104 0.02-19.384 10.419-29.973 29.705-30.015 49.707-0.037 99.403 0 149.1 0 1.632 0 3.275 0.2 5.146 0.32 0 12.698-0.04 24.898 0.009 37.06 0.019 10.01 4.906 14.925 14.966 15.046 7.334 0.1 14.668 0.078 22.013 0 10.589-0.079 15.285-4.937 15.306-15.645 0.027-12.001-0.003-24.043-0.003-36.541z m0 314.918c0-12.479 0.029-24.979 0-37.456-0.021-9.733-4.887-14.749-14.57-14.948-7.811-0.139-15.623-0.139-23.414 0.021-9.415 0.199-14.281 5.255-14.3 14.728-0.049 24.978-0.04 49.957 0 74.927 0.019 9.831 4.927 14.831 14.569 14.93 7.662 0.061 15.305 0.061 22.958 0 9.742-0.099 14.717-5.059 14.757-14.709 0.05-12.516 0-25.014 0-37.493z m-52.294-157.071c0 12.319-0.04 24.658 0.009 36.999 0.041 9.712 4.956 14.648 14.688 14.748 7.962 0.079 15.922 0.118 23.884-0.021 8.557-0.158 13.653-5.294 13.692-13.852 0.071-25.596 0.071-51.189 0-76.784-0.039-8.499-5.175-13.654-13.732-13.833-8.12-0.179-16.25-0.139-24.361 0-9.115 0.14-14.11 5.234-14.17 14.35-0.08 12.797-0.01 25.595-0.01 38.393z m0 0M916.05 557.149l12.222 43.826c3.022 10.848-3.325 22.092-14.172 25.118L242.37 775.202c-10.827 3.025-22.082-3.324-25.107-14.172L160.43 557.149h755.62z"  horiz-adv-x="1024" />

    
    <glyph glyph-name="dingdanguanli" unicode="&#58904;" d="M835.489 668.143h-85.856V685.48c0 10.177-8.375 18.756-18.554 18.756h-99.817c-5.494 21.931-17.046 41.882-32.516 57.441-22.134 22.134-52.847 36.095-86.734 36.095-33.821 0-64.625-13.961-86.962-36.095-15.469-15.559-26.728-35.51-32.311-57.441H292.92c-10.583 0-18.553-8.579-18.553-18.756v-17.338H188.51c-17.248 0-31.006-13.758-31.006-31.525V-1.38c0-16.954 13.759-30.915 31.006-30.915h646.979c17.25 0 31.007 13.961 31.007 30.915V636.618c0 17.767-13.757 31.525-31.007 31.525z m-384.116 67.01c15.739 15.558 37.175 25.534 60.639 25.534 23.417 0 44.673-9.976 60.209-25.534 8.871-8.58 15.852-19.546 19.86-30.917H431.917c4.189 11.371 11.08 22.338 19.456 30.917z m-139.808-68.61h400.869v-58.836H311.565v58.836z m-4.502-564.95c-20.131 0-36.658 15.829-36.658 36.296 0 20.02 16.527 36.32 36.658 36.32 19.904 0 36.185-16.301 36.185-36.32-0.001-20.467-16.281-36.296-36.185-36.296z m0 153.835c-20.131 0-36.658 16.077-36.658 35.645 0 20.716 16.527 36.501 36.658 36.501 19.904 0 36.185-15.785 36.185-36.501-0.001-19.568-16.281-35.645-36.185-35.645z m0 152.934c-20.131 0-36.658 16.754-36.658 36.524 0 20.716 16.527 36.567 36.658 36.567 19.904 0 36.185-15.852 36.185-36.567-0.001-19.77-16.281-36.524-36.185-36.524z m424.895-292.337H415.752c-11.868 0-21.865 9.771-21.865 21.863 0 12.115 9.997 21.415 21.865 21.415h316.206c11.844 0 21.638-9.3 21.638-21.415 0-12.091-9.794-21.863-21.638-21.863z m0 153.612H415.752c-11.868 0-21.865 10.043-21.865 21.436 0 12.295 9.997 22.337 21.865 22.337h316.206c11.844 0 21.638-10.042 21.638-22.337 0-11.393-9.794-21.436-21.638-21.436z m0 153.611H415.752c-11.868 0-21.865 9.772-21.865 21.639 0 11.912 9.997 21.909 21.865 21.909h316.206c11.844 0 21.638-9.997 21.638-21.909 0-11.867-9.794-21.639-21.638-21.639z"  horiz-adv-x="1024" />

    
    <glyph glyph-name="faxiantianchong" unicode="&#58905;" d="M871.26 513.609l-218.538 23.257-85.772 199.463c-23.978 55.74-75.297 56.269-100.572 1.057l-91.73-200.327-220.461-23.449c-61.314-6.535-76.69-54.586-30.08-94.181l164.913-140-50.406-212.004c-13.983-58.911 27.245-88.896 80.774-58.814l190.477 107.06 188.604-111.722c52.76-31.28 94.564-2.065 81.927 57.135l-46.13 216.568 167.027 141.777c46.658 39.594 31.233 87.646-30.033 94.18z"  horiz-adv-x="1024" />

    
    <glyph glyph-name="faxianxianxing" unicode="&#58906;" d="M868.717 528.16l-224.534 23.871-88.146 204.974c-24.617 57.261-77.375 57.799-103.313 1.077l-92.816-202.645c-4.686-0.55-9.786-1.135-15.244-1.778a5552.468 5552.468 0 0 0-61.713-6.804c-8.565-0.929-16.885-1.761-24.912-2.593-16.737-1.615-32.105-3.083-45.711-4.209-11.304-0.929-19.722-10.718-18.744-21.828 0.93-11.109 10.914-19.331 22.22-18.401a2840.74 2840.74 0 0 1 46.395 4.306c8.125 0.783 16.493 1.665 25.082 2.594 20.775 2.153 41.868 4.502 62.179 6.852 7.096 0.832 13.605 1.566 19.332 2.251 3.475 0.392 5.922 0.685 7.219 0.88a20.518 20.518 0 0 1 13.27 7.077 20.095 20.095 0 0 1 3.786 5.55L490.26 741.54c11.256 24.568 17.276 24.519 27.897-0.195L610.8 525.86c1.976-4.61 5.503-8.104 9.727-10.182a20.79 20.79 0 0 1 8.039-2.592l235.698-25.106c27.309-2.887 29.119-8.516 8.466-26.085L692.482 308.848c-7.441-6.299-9.134-16.65-4.664-24.811l47.292-222.045c5.627-26.379 0.732-29.805-22.66-15.904L508.417 166.971c-5.791 3.433-12.594 3.713-18.4 1.387a20.905 20.905 0 0 1-3.084-1.387L281.236 51.325c-23.834-13.411-28.68-9.888-22.464 16.246l52.949 222.806a19.774 19.774 0 0 1 1.678 10.392c-0.317 7.455-4.831 14.216-11.758 17.401l-98.955 88.031-71.551 63.672c-8.418 7.488-21.436 6.851-29.071-1.42-7.635-8.222-6.999-20.995 1.419-28.483l71.551-63.681 94.804-84.33-51.148-215.235c-14.389-60.49 27.994-91.323 83.002-60.441l195.722 110.039L691.16 11.487c54.226-32.104 97.196-2.104 84.227 58.776l-46.108 216.485 170.367 144.658c47.865 40.668 32.056 90.05-30.929 96.754z"  horiz-adv-x="1024" />

    
    <glyph glyph-name="fangtaikucun" unicode="&#58907;" d="M849.372-32.545H176.647c-43.364 0-78.643 35.259-78.643 78.623V718.802c0 43.364 35.279 78.643 78.643 78.643h432.482c7.215 0 13.09-5.876 13.09-13.11 0-7.255-5.875-13.111-13.09-13.111H176.647c-28.917 0-52.422-23.506-52.422-52.422v-672.724c0-28.916 23.505-52.422 52.422-52.422h672.725c28.896 0 52.422 23.506 52.422 52.422V532.825c0 7.234 5.855 13.111 13.111 13.111 7.233 0 13.09-5.876 13.09-13.111v-486.747c0-43.364-35.258-78.623-78.623-78.623zM369.312 79.675c0-12.36-10.03-22.371-22.391-22.371H217.64c-12.341 0-22.372 10.011-22.372 22.371V208.956c0 12.36 10.031 22.391 22.372 22.391h129.28c12.361 0 22.391-10.03 22.391-22.391v-129.281zM598.714 79.675c0-12.36-10.01-22.371-22.371-22.371h-129.28c-12.361 0-22.372 10.011-22.372 22.371V208.956c0 12.36 10.011 22.391 22.372 22.391h129.28c12.361 0 22.371-10.03 22.371-22.391v-129.281zM828.137 79.675c0-12.36-10.011-22.371-22.372-22.371h-129.28c-12.362 0-22.392 10.011-22.392 22.371V208.956c0 12.36 10.029 22.391 22.392 22.391h129.279c12.361 0 22.372-10.03 22.372-22.391v-129.281zM598.714 308.349c0-12.36-10.01-22.392-22.371-22.392h-129.28c-12.361 0-22.372 10.031-22.372 22.392V437.607c0 12.38 10.011 22.391 22.372 22.391h129.28c12.361 0 22.371-10.01 22.371-22.391v-129.258zM828.137 308.349c0-12.36-10.011-22.392-22.372-22.392h-129.28c-12.362 0-22.392 10.031-22.392 22.392V437.607c0 12.38 10.029 22.391 22.392 22.391h129.279c12.361 0 22.372-10.01 22.372-22.391v-129.258zM369.312 308.349c0-12.36-10.03-22.392-22.391-22.392H217.64c-12.341 0-22.372 10.031-22.372 22.392V437.607c0 12.38 10.031 22.391 22.372 22.391h129.28c12.361 0 22.391-10.01 22.391-22.391v-129.258zM369.312 541.984c0-12.361-10.03-22.392-22.391-22.392H217.64c-12.341 0-22.372 10.031-22.372 22.392V671.265c0 12.361 10.031 22.371 22.372 22.371h129.28c12.361 0 22.391-10.01 22.391-22.371v-129.281z"  horiz-adv-x="1024" />

    
    <glyph glyph-name="fangtaixianxing" unicode="&#58908;" d="M851.588 416.804H624.3c-41.925 0-76.032 34.107-76.032 76.007V720.175c0 41.9 34.107 75.956 76.032 75.956h227.288c41.926 0 76.033-34.056 76.033-75.956v-227.364c0-41.9-34.107-76.007-76.033-76.007zM624.3 754.889c-19.153 0-34.765-15.585-34.765-34.714v-227.364c0-19.179 15.611-34.765 34.765-34.765h227.288c19.179 0 34.766 15.586 34.766 34.765V720.175c0 19.128-15.587 34.714-34.766 34.714H624.3zM851.588-32.967H624.3c-41.925 0-76.032 34.108-76.032 76.008V270.455c0 41.9 34.107 76.007 76.032 76.007h227.288c41.926 0 76.033-34.106 76.033-76.007v-227.414c0-41.899-34.107-76.008-76.033-76.008zM624.3 305.221c-19.153 0-34.765-15.586-34.765-34.766v-227.414c0-19.18 15.611-34.765 34.765-34.765h227.288c19.179 0 34.766 15.585 34.766 34.765V270.455c0 19.18-15.587 34.766-34.766 34.766H624.3zM401.844-32.967H174.557c-41.926 0-76.033 34.108-76.033 76.008V270.455c0 41.9 34.107 76.007 76.033 76.007h227.288c41.926 0 76.033-34.106 76.033-76.007v-227.414c-0.001-41.899-34.108-76.008-76.034-76.008zM174.557 305.221c-19.179 0-34.765-15.586-34.765-34.766v-227.414c0-19.18 15.585-34.765 34.765-34.765h227.288c19.154 0 34.765 15.585 34.765 34.765V270.455c0 19.18-15.611 34.766-34.765 34.766H174.557zM401.844 796.131H194.14v-41.242h207.704c19.154 0 34.765-15.585 34.765-34.714v-227.364c0-19.179-15.611-34.765-34.765-34.765H174.557c-19.179 0-34.765 15.586-34.765 34.765V704.133H98.524V492.81c0-41.9 34.107-76.007 76.033-76.007h227.288c41.926 0 76.033 34.107 76.033 76.007V720.175c-0.001 41.9-34.108 75.956-76.034 75.956z"  horiz-adv-x="1024" />

    
    <glyph glyph-name="feizhu" unicode="&#58909;" d="M449.564 758.365h508.322s-13.446-98.054-65.61-178.727h65.61S922.068 405.02 798.382 339.449c0 0-31.343-329.44-371.19-329.44-339.894 0-363.008 344.347-363.008 363.729 0.001 238.524 219.897 384.627 385.38 384.627zM447.316 646.978h352.55s-3.821-62.281-40.921-119.661h42.833s-24.104-122.41-112.106-169.027c0 0 3.598-240.268-262.705-240.268-241.638 0-253.645 241.684-253.645 255.443 0.001 169.636 156.356 273.513 273.994 273.513zM458.513 611.7h288.38s-8.115-59.606-46.183-108.059l48.746-0.45s-18.886-97.992-94.95-120.7c0 0 2.698-230.157-225.179-230.157-206.788 0-220.233 206.833-220.233 218.592C209.095 546.878 373.41 611.7 458.513 611.7zM381.324 415.924c0-16.346-13.265-29.544-29.566-29.544s-29.567 13.198-29.567 29.544c0 16.35 13.266 29.596 29.567 29.596 16.301 0 29.566-13.247 29.566-29.596zM565.986 415.924c0-16.346-13.222-29.544-29.545-29.544s-29.565 13.198-29.565 29.544c0 16.35 13.242 29.596 29.565 29.596s29.545-13.247 29.545-29.596z"  horiz-adv-x="1024" />

    
    <glyph glyph-name="fangjiapai" unicode="&#58910;" d="M886.19 73.771H138.488c-40.333 0-73.144 32.811-73.144 73.145V618.901c0 40.334 32.81 73.144 73.144 73.144H886.19c40.333 0 73.143-32.81 73.143-73.144v-471.985c0-40.334-32.81-73.145-73.143-73.145zM138.488 643.282c-13.452 0-24.381-10.928-24.381-24.381v-471.985c0-13.453 10.929-24.381 24.381-24.381H886.19c13.451 0 24.381 10.928 24.381 24.381V618.901c0 13.453-10.93 24.381-24.381 24.381H138.488zM850.165 355.254c0-26.906-21.834-48.764-48.762-48.764H560.708c-26.929 0-48.762 21.857-48.762 48.764V513.709c0 26.952 21.833 48.763 48.762 48.763h240.695c26.928 0 48.762-21.811 48.762-48.763v-158.455zM437.564 499.661H203.18c-12.905 0-23.381 10.476-23.381 23.381s10.477 23.381 23.381 23.381h234.384c12.905 0 23.382-10.476 23.382-23.381s-10.477-23.381-23.382-23.381zM421.397 358.395H199.894c-11.977 0-21.667 9.691-21.667 21.65 0 11.972 9.69 21.663 21.667 21.663h221.503c11.976 0 21.667-9.691 21.667-21.663 0-11.959-9.69-21.65-21.667-21.65zM819.617 199.869H203.18c-12.905 0-23.381 10.477-23.381 23.381s10.477 23.381 23.381 23.381h616.438c12.905 0 23.382-10.477 23.382-23.381s-10.478-23.381-23.383-23.381z"  horiz-adv-x="1024" />

    
    <glyph glyph-name="gengduo" unicode="&#58911;" d="M511.27-64.652c-10.984 0-22.108 0.412-33.07 1.213l1.629 22.115a435.037 435.037 0 0 1 63.759 0.064l1.671-22.113a455.7 455.7 0 0 0-33.989-1.279z m-99.413 11.112a445.612 445.612 0 0 0-64.15 19.775l8.14 20.642a424.03 424.03 0 0 1 60.938-18.802l-4.928-21.615z m199.723 0.204l-4.972 21.618a421.439 421.439 0 0 1 60.842 18.897l8.205-20.62a444.452 444.452 0 0 0-64.075-19.895z m-324.279 48.778a450.921 450.921 0 0 0-55.316 37.872l13.914 17.308a427.407 427.407 0 0 1 52.581-36.01l-11.179-19.17z m448.62 0.402l-11.202 19.17a426.68 426.68 0 0 1 52.495 36.071l13.935-17.282a451.048 451.048 0 0 0-55.228-37.959z m-552.98 83.129a455.698 455.698 0 0 0-41.729 52.386l18.384 12.475a432.46 432.46 0 0 1 39.667-49.808l-16.322-15.053z m657.186 0.553l-16.345 15.031a429.282 429.282 0 0 1 39.591 49.881l18.406-12.432a451.464 451.464 0 0 0-41.652-52.48zM107.731 189.309a448.7 448.7 0 0 0-24.472 62.326l21.25 6.521a426.174 426.174 0 0 1 23.258-59.229l-20.036-9.618z m807.454 0.78l-20.057 9.552a429.392 429.392 0 0 1 23.16 59.326l21.25-6.478a449.114 449.114 0 0 0-24.353-62.4zM68.37 316.906a453.583 453.583 0 0 0-5.036 66.723l22.226 0.043c0.033-21.226 1.639-42.583 4.797-63.473l-21.987-3.293z m885.927 0.876l-21.987 3.25a434.838 434.838 0 0 1 4.668 63.473v1.777h22.225v-1.777a456.542 456.542 0 0 0-4.906-66.723zM90.108 447.146l-21.989 3.206a448.14 448.14 0 0 0 14.62 65.315l21.27-6.433a426.49 426.49 0 0 1-13.901-62.088z m841.953 2.556a426.875 426.875 0 0 1-14.282 62l21.228 6.564a447.33 447.33 0 0 0 15.021-65.229l-21.967-3.335zM127.05 568.603l-20.078 9.531a450.67 450.67 0 0 0 33.285 58.145l18.427-12.411a427.452 427.452 0 0 1-31.634-55.265z m767.34 2.285a426.9 426.9 0 0 1-31.928 55.038l18.341 12.519a449.16 449.16 0 0 0 33.601-57.896l-20.014-9.661z m-696.201 102.96l-16.387 14.989a453.186 453.186 0 0 0 48.88 45.832l13.979-17.241a429.678 429.678 0 0 1-46.472-43.58z m624.487 1.809a429.156 429.156 0 0 1-46.71 43.308l13.869 17.328a452.068 452.068 0 0 0 49.142-45.562l-16.301-15.074zM297.069 753.61l-11.244 19.125a447.699 447.699 0 0 0 60.21 29.414l8.248-20.598a425.752 425.752 0 0 1-57.214-27.941z m426.24 1.266a424.23 424.23 0 0 1-57.434 27.627l8.098 20.642c20.771-8.112 41.109-17.901 60.472-29.077l-11.136-19.192zM415.092 800.58l-5.014 21.616a450.038 450.038 0 0 0 66.299 10.169l1.715-22.115c-21.185-1.646-42.391-4.895-63-9.67z m189.813 0.584a427.16 427.16 0 0 1-63.055 9.281l1.585 22.115a447.086 447.086 0 0 0 66.354-9.758l-4.884-21.638zM489.867 517.844h34.295v-109.686h109.937v-34.223H524.162v-110.227h-34.295V373.936H379.43v34.223h110.438V517.844z"  horiz-adv-x="1024" />

    
    <glyph glyph-name="fuwuzhongxin" unicode="&#58912;" d="M831.021 203.262V454.359l10.399-0.432c-56.764 123.496-183.262 209.655-330.521 209.655-147.204 0-273.684-86.159-330.598-209.655l10.399 0.432v-251.098c-70.71 0-127.982 56.2-127.982 125.562 0 47.028 26.431 88.031 65.549 109.506 55.076 155.444 205.357 267.039 382.632 267.039 177.274 0 327.519-111.595 382.612-267.039 39.007-21.475 65.566-62.478 65.566-109.506 0-69.341-57.345-125.561-128.056-125.561z m0 0M510.898 583.317c146.057 0 264.427-116.193 264.484-259.505 0-143.281-118.428-259.456-264.484-259.456-146.153 0-264.506 116.175-264.506 259.456 0.001 143.312 118.354 259.505 264.506 259.505z m0 0"  horiz-adv-x="1024" />

    
    <glyph glyph-name="fangtaitianchong" unicode="&#58913;" d="M850.434 417.268h-227.08c-41.891 0-75.996 34.079-75.996 75.945v227.18c0 41.866 34.105 75.895 75.996 75.895h227.08c41.916 0 75.996-34.029 75.996-75.895v-227.18c0-41.866-34.08-75.945-75.996-75.945zM401.079 417.268H174c-41.917 0-75.997 34.079-75.997 75.945v227.18c0 41.866 34.079 75.895 75.997 75.895h227.079c41.891 0 75.996-34.029 75.996-75.895v-227.18c0-41.866-34.105-75.945-75.996-75.945zM850.434-32.139h-227.08c-41.891 0-75.996 34.08-75.996 75.945v227.23c0 41.865 34.105 75.945 75.996 75.945h227.08c41.916 0 75.996-34.08 75.996-75.945v-227.23c0-41.865-34.08-75.945-75.996-75.945zM401.079-32.139H174c-41.917 0-75.997 34.08-75.997 75.945v227.23c0 41.865 34.079 75.945 75.997 75.945h227.079c41.891 0 75.996-34.08 75.996-75.945v-227.23c0-41.865-34.105-75.945-75.996-75.945z"  horiz-adv-x="1024" />

    
    <glyph glyph-name="guanbi" unicode="&#58914;" d="M736.438 675.344l69.626-69.598-223.138-223.145 223.168-223.142-69.655-69.599-223.141 223.141-224.147-224.174-69.627 69.6 224.175 224.174-224.175 224.177 69.627 69.599 224.146-224.173 223.141 223.14z"  horiz-adv-x="1024" />

    
    <glyph glyph-name="fuwuzhongxin1" unicode="&#58915;" d="M814.594 209.932c-12.396 0-22.424 10.027-22.424 22.422V468.119c0 3.306 0.744 6.547 2.102 9.503-55.532 100.642-164.145 164.561-282.567 164.561-118.357 0-226.97-63.919-282.59-164.561a22.791 22.791 0 0 0 2.102-9.503v-235.765c0-12.395-10.029-22.422-22.422-22.422-79.182 0-143.583 62.913-143.583 140.254 0 50.86 28.27 97.831 73.751 122.554 10.862 5.89 24.504 1.905 30.417-9 5.912-10.883 1.883-24.503-9-30.416-31.029-16.861-50.321-48.722-50.321-83.138 0-45.152 32.628-83.08 76.313-92.934V449.067a22.61 22.61 0 0 0-6.065 6.088 22.387 22.387 0 0 0-1.73 21.941c59.19 127.532 189.941 209.934 333.13 209.934 143.254 0 274.004-82.401 333.085-209.955a22.35 22.35 0 0 0-1.73-21.919 22.746 22.746 0 0 0-6.043-6.065v-191.838c43.685 9.832 76.335 47.781 76.335 92.934 0 34.373-19.292 66.232-50.342 83.16-10.885 5.913-14.891 19.533-8.957 30.416 5.934 10.861 19.467 14.89 30.417 8.956 45.479-24.767 73.728-71.737 73.728-122.532-0.003-77.342-64.425-140.255-143.606-140.255zM511.705 79.422c-150.35 0-272.67 119.363-272.67 266.1 0 146.729 122.32 266.092 272.67 266.092 150.305 0 272.626-119.364 272.67-266.092 0-146.737-122.321-266.1-272.67-266.1z m0 487.346c-125.627 0-227.823-99.262-227.823-221.246 0-121.991 102.196-221.253 227.823-221.253 125.626 0 227.822 99.262 227.822 221.253-0.043 121.984-102.24 221.246-227.822 221.246z"  horiz-adv-x="1024" />

    
    <glyph glyph-name="guanyu" unicode="&#58916;" d="M513 106.635c-20.768 0-37.639 16.871-37.639 37.639V476.272c0 20.768 16.871 37.638 37.639 37.638 20.769 0 37.639-16.87 37.639-37.638v-331.999c0-20.767-16.87-37.638-37.639-37.638z m0 0M466.286 599.252a46.596 46.596 0 0 1 23.386-40.431c14.427-8.376 32.229-8.376 46.714 0 14.428 8.319 23.386 23.735 23.386 40.431 0 25.829-20.942 46.714-46.771 46.714-25.772 0-46.715-20.885-46.715-46.714z m0 0M513-62.885c-246.368 0-446.776 200.41-446.776 446.777C66.224 630.317 266.632 830.668 513 830.668c246.426 0 446.776-200.351 446.776-446.776 0-246.367-200.35-446.777-446.776-446.777z m0 839.742c-216.641 0-392.965-176.325-392.965-392.965S296.36-9.073 513-9.073s392.965 176.325 392.965 392.965S729.64 776.857 513 776.857z m0 0"  horiz-adv-x="1024" />

    
    <glyph glyph-name="huanbi" unicode="&#58917;" d="M838.279 690.329C771.507 756.661 680.065 798.045 579.026 798.045c-11.129 0-19.431-8.95-19.431-19.753v-346.775c0-8.114 4.639-14.954 11.523-18.084L870.04 240.846c9.274-5.171 20.797-2.041 26.316 7.094 16.137 28.077 28.586 57.776 36.352 88.543 8.324 30.767 13.008 62.599 13.008 95.035 0.001 101.062-41.267 192.735-107.437 258.811zM523.033 399.638V755.965c0 20.101-15.697 35.45-35.01 35.45-113.722 0-216.385-45.373-290.971-120.051l-0.44-0.464-0.232-0.231c-74.47-74.47-120.932-177.596-120.932-291.363 0-113.489 46.462-216.13 120.932-291.085l0.232-0.21c74.563-74.702 177.689-120.955 291.411-120.955a410.275 410.275 0 0 1 203.821 54.183l1.67 1.091c61.368 35.45 113.721 87.149 150.515 150.075l0.441 0.671c10.038 17.366 4.058 38.557-12.961 48.063L523.033 399.638zM658.55 83.514l-1.832-1.369c-49.963-28.633-108.667-44.468-168.695-44.468-94.641 0-180.262 38.347-241.888 99.974-61.811 62.063-99.857 147.361-99.857 241.655 0 94.36 38.046 179.426 99.857 241.748 54.16 54.16 126.125 90.003 206.368 98.141v-339.889c0-14.444 8.463-26.617 20.52-32.481l291.32-168.091c-28.286-38.835-64.526-71.805-105.793-95.22z"  horiz-adv-x="1024" />

    
    <glyph glyph-name="guazhang" unicode="&#58918;" d="M342.514 361.448c-5.481 0-10.755-2.17-14.637-6.258l-21.214-21.099-21.499-21.512-7.639 6.897-6.667 7.307c-3.768 3.883-9.043 6.028-14.317 6.028-5.492 0-10.756-2.146-14.318-6.028-3.871-4.293-5.697-9.454-5.697-13.793 0-5.343 1.827-10.731 5.697-14.614l14.318-13.975 14.317-14.66c3.87-3.836 8.814-5.8 14.306-5.8 4.83 0 10.001 1.964 13.872 5.8l28.841 28.635 28.407 28.863c3.86 3.654 6.028 8.997 6.028 13.976 0 4.704-2.168 10.093-6.028 13.975-3.768 4.088-9.043 6.258-13.77 6.258z m0-142.468c-5.481 0-10.755-1.713-14.637-5.824l-21.214-20.871-21.499-21.738-7.639 7.124-6.667 6.896c-3.768 4.065-9.043 5.8-14.317 5.8-5.492 0-10.756-1.734-14.318-5.8-3.871-3.242-5.697-8.86-5.697-14.021 0-5.389 1.827-10.322 5.697-14.615l14.318-13.792 14.317-14.843c3.87-3.425 8.814-5.8 14.306-5.8 4.83 0 10.001 2.375 13.872 5.8l28.841 28.635 28.407 28.636c3.86 4.065 6.028 9.225 6.028 14.615 0 5.16-2.168 10.321-6.028 13.974-3.768 4.112-9.043 5.824-13.77 5.824z m363.142 246.824H413.633c-11.177 0-20.015-8.814-20.015-19.775 0-11.235 8.838-20.231 20.015-20.231h292.023a20.182 20.182 0 0 1 20.232 20.231c0.001 10.961-9.042 19.775-20.232 19.775zM859.2 692.373h-92.438v18.085c0 11.19-9.146 20.872-19.797 20.872H639.047c-5.811 23.474-18.188 44.802-35.405 61.563-23.887 24.342-56.813 38.728-93.61 38.728-36.25 0-69.395-14.386-93.497-38.728-16.796-16.761-29.149-38.089-34.858-61.563H273.758c-11.303 0-20.117-9.682-20.117-20.872v-18.085h-92.654c-18.61 0-33.351-15.482-33.351-33.522V-29.99c0-18.542 14.741-33.567 33.351-33.567H859.2c18.496 0 33.556 15.025 33.556 33.567V658.851c0 18.04-15.06 33.522-33.556 33.522z m-414.043 71.885c16.681 16.807 39.597 27.128 64.874 27.128 25.824 0 48.739-10.321 65.42-27.128 9.146-9.225 16.784-20.643 21.305-32.928H423.418c5.059 12.285 12.389 23.703 21.739 32.928z m-151.396-73.574h432.652v-63.893H293.761v63.893z m531.758-687.107H194.68V625.056h58.961v-18.497c0-11.006 8.814-20.46 20.117-20.46h473.208c10.651 0 19.797 9.454 19.797 20.46v18.497h58.756v-621.479zM342.514 503.253c-5.481 0-10.755-1.507-14.637-5.617l-21.214-21.511-21.499-21.738-7.639 7.535-6.667 7.125c-3.768 3.836-9.043 5.8-14.317 5.8-5.492 0-10.756-1.964-14.318-5.8-3.871-4.111-5.697-9.499-5.697-14.66 0-5.343 1.827-10.093 5.697-14.203l14.318-14.386 14.317-14.204c3.87-4.11 8.814-5.617 14.306-5.617 4.83 0 10.001 1.507 13.872 5.617l28.841 28.59 28.407 28.863c3.86 3.836 6.028 8.814 6.028 13.975s-2.168 10.549-6.028 14.614c-3.768 4.11-9.043 5.617-13.77 5.617z m363.142-321.289H413.633c-11.177 0-20.015-9.271-20.015-20.231s8.838-19.82 20.015-19.82h292.023c11.189 0 20.232 8.86 20.232 19.82 0.001 10.96-9.042 20.231-20.232 20.231z m0 142.445H413.633c-11.177 0-20.015-9.271-20.015-20.46 0-11.188 8.838-20.004 20.015-20.004h292.023c11.189 0 20.232 8.815 20.232 20.004 0.001 11.19-9.042 20.46-20.232 20.46z"  horiz-adv-x="1024" />

    
    <glyph glyph-name="jianyi" unicode="&#58919;" d="M830.662 175.213c-55.347-69.081-131.801-118.164-217.622-139.778l-70.166-97.511h-62.643l-62.466 97.31C237.512 80.024 110.99 241.871 110.99 427.602c0 222.849 181.263 404.136 404.059 404.136 222.798 0 404.035-181.287 404.035-404.136a405.46 405.46 0 0 0-88.422-252.389zM515.049 758.212c-182.297 0-330.584-148.313-330.584-330.61 0-156.114 110.691-292.282 263.22-323.843l15.1-2.576 50.472-78.625 56.229 78.196 22.346 5.126c149.146 35.146 254.333 168.46 253.804 321.722-0.001 182.297-148.289 330.61-330.587 330.61z m205.072-379.467c-29.288 0-53.049 23.709-53.049 52.998 0 29.313 23.761 53.073 53.049 53.073 29.314 0 53.049-23.759 53.049-53.073 0-29.288-23.734-52.998-53.049-52.998z m-205.072 0c-29.313 0-53.073 23.709-53.073 52.998 0 29.313 23.76 53.073 53.073 53.073 29.288 0 53.073-23.759 53.073-53.073 0-29.288-23.785-52.998-53.073-52.998z m-205.072 0c-29.34 0-53.074 23.709-53.074 52.998 0 29.313 23.734 53.073 53.074 53.073 29.289 0 53.048-23.759 53.048-53.073 0-29.288-23.759-52.998-53.048-52.998z m0 0"  horiz-adv-x="1024" />

    
    <glyph glyph-name="huiyuanqia" unicode="&#58920;" d="M735.734 469.344h-67.857l-15.646-88.712h65.92c36.497 0 56.988 15.581 62.633 47.632 1.408 12.147-0.68 21.459-6.445 28.094-7.023 8.112-20.022 12.468-38.605 12.986zM873.688 669.44h-671.06c-51.482 0-96.9-41.722-101.486-93.194L66.814 189.729c-4.577-51.474 33.448-93.194 84.931-93.194h671.061c51.472 0 96.89 41.721 101.475 93.194l34.329 386.518c4.575 51.472-33.44 93.193-84.922 93.193zM264.331 203.554l-66.088 322.738h61.833l44.628-237.017c0.17 0.36 0.35 0.72 0.54 1.039l125.394 235.978h64.69L315.404 203.554h-51.073z m190.464 0l56.917 322.738h58.925L513.72 203.554h-58.925z m385.982 223.07c-12.838-67.453-55.328-101.941-126.354-102.939h-72.232L621 203.554h-60.303l57.188 324.218h133.097c33.199-1.559 57.476-11.191 72.452-28.574 14.616-16.945 20.461-41.362 17.343-72.574z"  horiz-adv-x="1024" />

    
    <glyph glyph-name="jiageguanli" unicode="&#58921;" d="M136.863 761.851H888.876c21.573 0 39.119-17.544 39.119-39.595v-674.938c0-22.053-17.546-39.598-39.119-39.598H136.863c-21.314 0-38.858 17.545-38.858 39.598V722.257c-0.001 22.049 17.544 39.594 38.858 39.594zM293.47 646.573c19.061 0 36.086-7.776 48.368-20.036 12.281-12.044 20.037-29.566 20.037-48.368v-29.806h83.177v29.806c0 18.802 7.797 36.324 19.84 48.368 12.261 12.259 29.329 20.036 48.606 20.036 18.282 0 35.069-7.776 47.611-20.036 12.259-12.044 20.056-29.566 20.056-48.368v-29.806h82.939v29.806c0 18.802 7.776 36.324 20.036 48.368 12.282 12.259 29.328 20.036 48.39 20.036 18.781 0 35.827-7.776 48.088-20.036 12.541-12.044 20.056-29.566 20.056-48.368v-29.806h48.866V683.179H176.2v-134.816h49.127v29.806c0 18.802 7.753 36.324 20.057 48.368 12.259 12.259 29.544 20.036 48.086 20.036zM849.539 501.49h-48.866v-29.827c0-18.78-7.515-35.805-20.056-48.108-12.261-12.563-29.307-20.036-48.088-20.036-19.062 0-36.107 7.473-48.39 20.036-12.26 12.304-20.036 29.329-20.036 48.108V501.49h-82.939v-29.827c0-18.78-7.797-35.805-20.056-48.108-12.542-12.563-29.329-20.036-47.611-20.036-19.277 0-36.345 7.473-48.606 20.036-12.043 12.304-19.84 29.329-19.84 48.108V501.49h-83.177v-29.827c0-18.78-7.756-35.805-20.037-48.108-12.281-12.563-29.307-20.036-48.368-20.036-18.542 0-35.827 7.473-48.087 20.036-12.304 12.304-20.057 29.329-20.057 48.108V501.49h-49.127v-225.309h49.127v29.871c0 18.541 7.753 35.803 20.057 48.107 12.26 12.28 29.545 20.016 48.087 20.016 19.061 0 36.086-7.735 48.368-20.016 12.281-12.305 20.037-29.566 20.037-48.107v-29.871h83.177v29.871c0 18.541 7.797 35.803 19.84 48.107 12.261 12.28 29.329 20.016 48.606 20.016 18.282 0 35.069-7.735 47.611-20.016 12.259-12.305 20.056-29.566 20.056-48.107v-29.871h268.375V501.49z m0-273.548h-268.85v-30.066c0-18.561-7.798-36.085-19.799-48.127-12.303-12.26-29.328-19.777-48.627-19.777-18.303 0-35.09 7.518-47.632 19.777-12.26 12.042-20.014 29.566-20.014 48.127v30.066h-82.96v-30.066c0-18.561-7.776-36.085-20.057-48.127-12.26-12.26-29.308-19.777-48.347-19.777-18.801 0-35.849 7.518-48.13 19.777-12.52 12.042-20.036 29.566-20.036 48.127v30.066h-48.866v-135.573h673.318V227.942z"  horiz-adv-x="1024" />

    
    <glyph glyph-name="jiantou" unicode="&#58922;" d="M340.582-29.296l-45.585 45.586 367.77 367.776-367.77 367.836 45.585 45.586L714.521 423.48c10.548-10.546 16.341-24.525 16.341-39.415 0-14.892-5.793-28.87-16.341-39.417L340.582-29.296z"  horiz-adv-x="1024" />

    
    <glyph glyph-name="jiaobangaikuang" unicode="&#58923;" d="M360.829 669.947c0 18.496 14.906 33.445 33.276 33.445H596.47v95.44c0 18.032 15.119 33.15 33.531 33.15 8.699 0 17.397-3.842 23.605-9.839L917.29 558.165c12.67-12.754 12.67-33.995 0-47.002l-263.683-263.41c-13.216-13.6-34.458-13.6-47.213 0-6.629 6.208-9.924 14.695-9.924 23.227v95.65H394.105c-18.37 0-33.276 14.596-33.276 33.089v48.269L177.171 264.729l183.658-183.656v48.27c0 18.327 14.906 33.614 33.276 33.614h235.897c18.157 0 32.939-15.287 32.939-33.614 0-18.877-14.782-33.151-32.939-33.151H427.383v-95.65c0-8.954-3.083-17.274-9.881-23.229-12.965-13.598-34.25-13.598-47.002 0L107.282 240.32l-0.759 0.423c-12.922 13.218-12.922 33.994 0 47.212l254.391 258.174s-0.085 105.786-0.085 123.818z"  horiz-adv-x="1024" />

    
    <glyph glyph-name="kerenguanli" unicode="&#58924;" d="M864.409 744.907H160.615c-13.691 0-24.753 11.062-24.753 24.753 0 13.692 11.062 24.708 24.753 24.708h703.794c13.646 0 24.707-11.016 24.707-24.708 0-13.691-11.06-24.753-24.707-24.753zM904.259 680.213H120.696c-30.714 0-55.853-25.071-55.853-55.628v-563.744c0-30.648 25.139-55.673 55.853-55.673h783.563c30.783 0 55.876 25.024 55.876 55.673V624.585c0 30.557-25.093 55.628-55.876 55.628zM528.244 142.264H199.695v37.22c0 18 10.381 34.364 26.702 42.026l94.163 57.577c-29.899 14.916-50.776 44.791-52.091 79.746l-2.856 73.347c0 47.965 39.691 86.863 88.586 86.863h19.517c48.918 0 88.564-38.898 88.564-86.863l-2.812-73.347c-1.337-35.091-22.305-64.922-52.227-79.836l94.253-57.487c16.321-7.662 26.749-24.118 26.749-42.026v-37.22z m299.058 40.031H654.775c-13.646 0-24.708 11.063-24.708 24.754s11.063 24.707 24.708 24.707h172.526c13.646 0 24.729-11.016 24.729-24.707s-11.083-24.754-24.728-24.754z m0 123.585H654.775c-13.646 0-24.708 11.063-24.708 24.754 0 13.646 11.063 24.708 24.708 24.708h172.526c13.646 0 24.729-11.063 24.729-24.708 0.001-13.692-11.083-24.754-24.728-24.754z m0 123.58H654.775c-13.646 0-24.708 11.062-24.708 24.708 0 13.692 11.063 24.753 24.708 24.753h172.526c13.646 0 24.729-11.061 24.729-24.753 0.001-13.646-11.083-24.708-24.728-24.708z"  horiz-adv-x="1024" />

    
    <glyph glyph-name="lianxikefu" unicode="&#58925;" d="M713.779-30.857c-96.887 0-248.898 69.93-392.51 212.474C126.292 375.185 64.968 585.18 131.872 652.58c4.328 4.381 8.709 9.022 13.246 13.819 28.263 29.932 62.888 67.347 111.333 65.339 33.009-1.251 64.245-20.651 95.585-59.343 85.833-105.911 54.962-151.304 2.034-203.815l-7.718-7.718c-0.208-0.182-13.297-28.342 106.17-146.924 119.525-118.633 147.527-105.283 147.736-105.075l7.666 7.795c52.146 53.295 97.305 84.505 203.842-0.547 38.9-31.027 58.561-62.133 60.072-95.141 2.139-47.95-34.834-83.357-64.609-111.854-4.695-4.54-9.336-8.971-13.662-13.272-17.628-17.759-45.161-26.701-79.788-26.701zM253.218 679.358c-23.727 0-48.235-26.048-69.981-49.019-4.798-5.084-9.491-10.091-14.08-14.706-36.867-37.128 6.936-215.939 189.084-396.732C540.34 38.135 719.465-4.313 756.334 32.79c4.588 4.612 9.541 9.36 14.6 14.234 23.258 22.267 49.539 47.454 48.445 71.599-0.781 16.739-14.342 35.72-40.363 56.499-77.697 61.927-94.02 45.29-133.6 4.851l-7.926-8.081c-51.209-51.599-145.544 28.941-221.939 104.763-76.448 75.899-157.588 169.607-106.432 221.18l7.979 7.979c40.101 39.839 56.736 56.318-5.892 133.547-20.912 25.892-39.998 39.32-56.735 39.971-0.42 0.026-0.836 0.026-1.253 0.026z m641.409-290.171c-13.924 0-25.553 10.95-26.18 25.004-5.58 119.103-42.863 207.57-110.811 262.976-106.328 86.642-253.229 64.662-254.688 64.4-14.08-2.424-27.769 7.509-30.037 21.824-2.243 14.289 7.509 27.742 21.849 29.985 6.936 1.121 171.723 25.761 295.989-75.561 80.045-65.184 123.848-166.53 130.107-301.147 0.676-14.498-10.482-26.804-24.98-27.457-0.415-0.024-0.833-0.024-1.249-0.024z m-158.059 5.892c-14.184 0-25.813 11.264-26.229 25.5-4.746 169.583-174.588 180.793-181.836 181.21-14.498 0.756-25.582 13.141-24.773 27.611 0.783 14.445 13.666 26.309 27.641 24.744 77.908-4.224 226.578-58.196 231.428-232.104 0.416-14.497-11.004-26.569-25.5-26.961h-0.731z"  horiz-adv-x="1024" />

    
    <glyph glyph-name="lishishuju" unicode="&#58926;" d="M876.471-31.005H539.665c-12.867 0-23.265 10.408-23.265 23.274 0 12.863 10.397 23.275 23.265 23.275h336.806c10.342 0 18.753 8.409 18.753 18.728v697.98c0 10.319-8.411 18.729-18.753 18.729H367.156c-10.34 0-18.773-8.409-18.773-18.729v-196.338c0-12.865-10.41-23.275-23.275-23.275s-23.275 10.41-23.275 23.275V732.253c0 36.003 29.298 65.279 65.324 65.279h509.314c36.005 0 65.303-29.276 65.303-65.279v-697.98c-0.001-36.004-29.298-65.278-65.303-65.278zM325.107-40.781c-144.174 0-261.481 117.217-261.481 261.301 0 144.059 117.307 261.252 261.481 261.252 144.173 0 261.469-117.194 261.469-261.252 0-144.084-117.295-261.301-261.469-261.301z m0 476.003c-118.512 0-214.931-96.304-214.931-214.703 0-118.422 96.418-214.75 214.931-214.75 118.512 0 214.921 96.328 214.921 214.75 0 118.399-96.409 214.703-214.921 214.703zM436.028 197.244h-110.92c-12.865 0-23.275 10.409-23.275 23.275V383.263c0 12.865 10.41 23.275 23.275 23.275s23.275-10.41 23.275-23.275v-139.468h87.645c12.864 0 23.275-10.411 23.275-23.275 0-12.867-10.411-23.276-23.275-23.276zM800.282 566.6H445.21c-12.865 0-23.275 10.41-23.275 23.275 0 12.865 10.41 23.275 23.275 23.275h355.072c12.863 0 23.274-10.411 23.274-23.275 0.001-12.866-10.41-23.275-23.274-23.275zM800.282 361.942H621.807c-12.863 0-23.274 10.41-23.274 23.276 0 12.864 10.411 23.275 23.274 23.275h178.476c12.863 0 23.274-10.411 23.274-23.275 0-12.865-10.411-23.276-23.275-23.276zM800.282 157.284H651.039c-12.864 0-23.275 10.411-23.275 23.275 0 12.866 10.411 23.275 23.275 23.275h149.243c12.863 0 23.274-10.409 23.274-23.275 0.001-12.864-10.41-23.275-23.274-23.275z"  horiz-adv-x="1024" />

    
    <glyph glyph-name="miandan" unicode="&#58927;" d="M853.271 664.233H714.493c2.5 11.594 4.316 22.767 4.316 34.823 0 36.839-15.006 70.192-38.897 93.842-23.892 24.321-57.328 39.233-93.495 39.233-73.491 0-132.876-59.816-132.876-133.075 0-12.056 2.058-23.692 4.557-34.823H319.089c-11.363 0-21.15-9.116-21.15-20.919v-133.58L152.104 185.655l-0.451-0.546c-4.778-10.585 0-23.187 10.69-27.976L648.292-61.72l0.684-0.463c10.47-5.124 23.198 0 28.207 10.586l89.41 198.354h86.68c11.604 0 20.93 9.578 20.93 21.76V643.313c-0.002 11.804-9.327 20.92-20.932 20.92zM586.417 789.117c24.563 0 47.078-9.746 63.229-25.917a91.012 91.012 0 0 0 26.4-64.144c0-23.692-8.873-47.005-26.4-63.388-16.151-16.382-38.667-26.506-63.229-26.506-25.036 0-47.552 10.124-63.935 26.506-4.998 5.376-9.556 10.837-13.41 17.391v0.588l-0.462 0.252v0.42l-0.693 0.378c-7.498 13.274-11.594 28.648-11.594 44.359 0 49.903 40.263 90.061 90.094 90.061z m60.52-803.873L199.655 187.168l98.284 218.642v-237.292c0-12.182 9.788-21.76 21.15-21.76h400.866l-73.018-161.514z m144.417 480.929L576.808 251.102c-13.872-13.316-36.398-13.316-50.281 0l-1.806 2.017-105.342 106.023c-13.894 13.652-13.894 36.419 0 49.945 13.662 14.199 36.177 14.199 50.271-0.462l81.912-81.786 189.722 189.49c13.673 13.904 36.408 13.904 50.071 0 13.861-13.862 13.861-36.252-0.001-50.156z"  horiz-adv-x="1024" />

    
    <glyph glyph-name="meituan" unicode="&#58928;" d="M959.899 384.406c0-248.104-201.135-449.217-449.215-449.217-248.103 0-449.216 201.113-449.216 449.217 0 248.081 201.113 449.216 449.216 449.216 248.081 0 449.215-201.135 449.215-449.216zM358.743 295.32c27.096-29.299 71.374-44.891 135.1-49.828-9.915-9.894-21.757-29.299-27.096-42.223-76.713 10.275-122.897 35.38-153.807 84.445-19.851-41.077-61.84-68.09-156.497-83.682-3.051 12.16-13.728 31.185-22.521 40.697 74.446 9.894 110.313 26.249 129.02 50.59h-109.55v40.698H279.34c1.144 6.079 2.309 12.923 3.071 19.786H141.952v39.151h146.561v20.169H175.531v38.049h112.982v19.385H157.968v39.934h68.323c-5.72 11.398-13.728 23.58-21.375 33.473l40.463 15.974c11.843-13.304 23.665-31.566 28.622-44.489l-11.059-4.958H346.9c9.554 14.83 20.994 34.617 27.096 49.447l48.854-12.541c-8.39-13.326-17.161-25.889-25.571-36.906h70.229v-39.934H335.46v-19.385h116.795v-38.049H335.46v-20.169h151.899v-39.151H330.502c-0.762-6.863-1.927-13.324-3.071-19.786H478.97v-40.698H358.743zM863.93 544.44v-341.17h-49.235v13.306H586.082v-13.306h-46.947V544.44H863.93z m-49.236-287.147V502.981H586.082v-245.688h228.612z m-13.728 153.255h-45.802v-96.605c0-20.527-3.051-30.803-16.419-37.646-12.584-6.843-29.766-7.605-53.049-7.605-1.907 11.778-8.771 29.278-14.491 40.315 14.109-0.763 29.003-0.763 33.96-0.381 4.958 0 6.484 1.145 6.484 5.699v51.353c-28.241-28.135-61.438-51.735-90.845-67.327-5.72 8.39-18.304 22.457-28.239 30.422 34.363 18.263 72.518 47.181 101.542 81.775h-91.606v39.957h109.148v41.057h43.515v-41.057h45.802v-39.957z"  horiz-adv-x="1024" />

    
    <glyph glyph-name="qita" unicode="&#58929;" d="M213.035-62.028c-25.24 0-48.168 10.235-64.731 27.045-16.563 16.563-27.007 39.453-27.007 64.815V738.033c0 25.118 10.444 48.057 27.007 64.817 16.996 16.81 39.937 26.996 64.731 26.996h597.049c24.572 0 47.179-9.988 63.754-26.303l0.988-0.693c17.12-16.76 27.318-39.7 27.318-64.817v-517.407c0-8.947-3.624-17.402-10.198-24.77L644.072-51.991c-6.364-6.081-15.154-10.037-24.585-10.037H213.035z m98.882 682.539c-11.198 0-20.419-9.343-20.419-20.517 0-11.176 9.221-20.619 20.419-20.619h344.318c11.644 0 20.629 9.443 20.629 20.619 0 11.173-8.985 20.517-20.629 20.517H311.917z m0-144.862c-11.198 0-20.419-9.098-20.419-20.271 0-11.669 9.221-20.962 20.419-20.962h234.695c11.211 0 20.208 9.293 20.208 20.962 0 11.173-8.997 20.271-20.208 20.271H311.917z m0-144.917c-11.198 0-20.419-9.245-20.419-20.419 0-11.421 9.221-20.964 20.419-20.964H710.99c11.421 0 20.741 9.543 20.741 20.964 0 11.174-9.32 20.419-20.741 20.419H311.917z m287.374-324.285V162.731c0 20.963 8.01 39.949 21.396 54.089l1 1.188c14.375 14.387 34.003 22.84 55.177 22.84h156.581V738.033c0 6.379-2.855 12.261-6.799 16.365l-0.556 0.197c-3.831 4.154-9.641 6.577-16.007 6.577H213.035c-6.254 0-12.175-2.423-16.217-6.774-4.178-4.104-6.6-9.986-6.6-16.365v-708.201c0-6.377 2.422-12.161 6.6-16.364 4.042-4.597 9.963-7.021 16.217-7.021h386.256z"  horiz-adv-x="1024" />

    
    <glyph glyph-name="qianliyan" unicode="&#58930;" d="M748.504 832.132H274.635c-21.462 0-38.904-21.463-38.904-47.945v-799.799c0-26.483 17.442-47.945 38.904-47.945h473.869c21.514 0 38.93 21.462 38.93 47.945V784.187c0 26.482-17.416 47.945-38.93 47.945zM442.596 802.576h139.329c5.481 0 9.938-4.456 9.938-9.937 0-5.506-4.456-9.989-9.938-9.989H442.596c-5.481 0-9.937 4.482-9.937 9.989 0 5.481 4.456 9.937 9.937 9.937z m69.664-837.449c-31.708 0-57.422 25.715-57.422 57.422 0 31.759 25.714 57.447 57.422 57.447 31.735 0 57.473-25.688 57.473-57.447 0-31.707-25.738-57.422-57.473-57.422z m239.368 175.876c0-19.337-14.933-35.012-33.372-35.012H312.233c-18.415 0-33.346 15.675-33.346 35.012V724.87c0 19.311 14.931 34.986 33.346 34.986h406.023c18.439 0 33.372-15.675 33.372-34.986v-583.867zM416.984 306.273c0-8.247-8.4-14.956-18.798-14.956H384.15c-10.398 0-18.748 6.709-18.748 14.956V446.984c0 8.298 8.349 14.957 18.748 14.957h14.036c10.398 0 18.798-6.659 18.798-14.957v-140.711zM539.205 307.35c0-9.143-7.376-16.545-16.521-16.545h-20.721c-9.118 0-16.52 7.402-16.52 16.545V510.117c0 9.118 7.402 16.52 16.52 16.52h20.721c9.145 0 16.521-7.401 16.521-16.52V307.35zM659.119 307.35c0-9.143-7.377-16.545-16.545-16.545h-26.457c-9.144 0-16.546 7.402-16.546 16.545V588.72c0 9.118 7.402 16.545 16.546 16.545h26.457c9.168 0 16.545-7.427 16.545-16.545v-281.37z"  horiz-adv-x="1024" />

    
    <glyph glyph-name="mimaanquan" unicode="&#58931;" d="M554.347 8.443c-17.337-9.526-29.974-13.773-40.941-13.773-10.97 0-23.252 4.194-40.943 14.102-294.881 164.854-293.92 255.178-290.28 591.203 0.353 33.411 0.758 69.069 0.859 107.256a2386.252 2386.252 0 0 0 145.469 38.465c55.65 12.94 117.568 21.305 183.984 24.869 126.314-14.153 223.158-32.88 328.141-63.485 0.152-43.166 0.708-83.046 1.213-119.995 4.547-337.743 5.66-418.009-287.502-578.642m344.971 579.451c-0.556 42.888-1.164 89.642-1.265 141.021 0 12.763-8.339 24.06-20.521 27.8-117.164 35.583-221.741 56.433-361.094 71.975a31.02 31.02 0 0 1-4.601 0.127c-70.612-3.689-136.624-12.586-196.217-26.411-59.896-13.924-117.062-29.341-169.781-45.768-12.08-3.816-20.318-15.088-20.268-27.8 0-46.223-0.506-88.782-0.91-128.233-3.64-335.544-5.004-461.073 320.001-642.783 26.789-14.986 47.361-21.38 68.743-21.38 21.027 0 42.104 6.444 68.388 20.8 323.69 177.463 322.276 282.523 317.525 630.652M715.03 574.929L455.732 311.538 328.459 440.806a38.184 38.184 0 0 1-27.092 11.399c-10.211 0-20.017-4.07-27.143-11.296-15.012-15.215-15.063-39.629-0.101-54.894l154.466-156.842c7.178-7.278 16.932-11.397 27.143-11.397 10.209 0 19.965 4.119 27.143 11.424l286.492 290.988c14.911 15.239 14.859 39.678-0.102 54.867a38.235 38.235 0 0 1-27.143 11.322c-10.209-0.05-19.965-4.145-27.092-11.448"  horiz-adv-x="1024" />

    
    <glyph glyph-name="qiantaishoukuan" unicode="&#58932;" d="M110.802 177.582s193.909 40.123 267.472 86.93c73.563 46.784 120.347 13.343 80.225-43.487-40.102-56.854-50.755-70.221 14.732-70.221h125.71s120.475 43.487 224.135 116.897c12.283 8.701 46.678 26.019 72.846-0.629 19.03-19.421 27.321-46.048-22.827-86.172-50.148-40.123-190.567-150.442-190.567-150.442S635.72 0.36 545.472 0.36H110.803V177.582zM531.019 768.519c-183.797 0-332.767-148.969-332.767-332.722 0-70.599 15.842-129.667 53.296-183.525 45.069 13.541 97.019 35.415 124.014 52.601 25.086 15.948 49.345 18.9 70.134 18.9 21.157 0 41.034-11.196 52.426-24.694 15.56-18.424 23.198-47.587 4.557-75.341 0 0-20.223-28.841-24.976-37.217 4.579-0.563 112.016-0.218 112.016-0.218 18.92 7.163 126.271 52.386 213.87 114.403 4.43 3.145 22.546 14.562 30.252 21.354 15.645 38.603 29.943 69.533 29.943 113.737-0.001 183.753-148.99 332.722-332.765 332.722zM645.333 622.48l-66.14-120.912h40.728a11.102 11.102 0 0 0 11.111-11.11v-30.315c0-6.14-4.968-11.11-11.111-11.11h-58.719v-19.897h58.719a11.102 11.102 0 0 0 11.111-11.111v-30.511c0-6.148-4.968-11.12-11.111-11.12h-58.719v-49.495c0-6.141-4.969-11.111-11.109-11.111h-38.149c-6.14 0-11.111 4.971-11.111 11.111v49.495h-60.866c-6.142 0-11.11 4.972-11.11 11.12v30.511a11.103 11.103 0 0 0 11.11 11.111h60.866v19.897h-60.866c-6.142 0-11.11 4.97-11.11 11.11v30.315c0 6.141 4.969 11.11 11.11 11.11h42.011l-65.294 120.976a11.032 11.032 0 0 0 0.239 10.958 11.076 11.076 0 0 0 9.525 5.425h43.638a11.07 11.07 0 0 0 10.003-6.271l51.84-107.045c0.021-0.086 0.066-0.172 0.109-0.261 0.216 0.457 0.433 0.889 0.672 1.346l52.035 106.025a11.098 11.098 0 0 0 9.961 6.205h40.883c3.927 0 7.551-2.06 9.548-5.446a11.109 11.109 0 0 0 0.196-11z"  horiz-adv-x="1024" />

    
    <glyph glyph-name="qiehuan" unicode="&#58933;" d="M834.577 356.807c-20.606 0-37.283 16.632-37.283 37.211 0 157.753-128.336 286.09-286.099 286.09-91.71 0-178.505-44.454-232.169-118.944-12.016-16.674-35.316-20.497-52.063-8.446-16.711 12.051-20.46 35.352-8.446 52.063 67.682 93.858 177.086 149.889 292.679 149.889 198.865 0 360.661-161.794 360.661-360.652-0.001-20.58-16.674-37.211-37.28-37.211zM832.975 336.164c-9.102 0-18.351 2.257-26.869 6.99l-133.032 74.347c-17.949 10.048-24.394 32.766-14.347 50.751 10.051 17.949 32.769 24.321 50.754 14.345l116.14-64.987 64.951 116.176c10.086 17.913 32.804 24.394 50.751 14.344 17.949-10.047 24.394-32.766 14.343-50.751L881.25 364.37c-10.12-18.049-28.908-28.206-48.275-28.206zM514.69 16.906c-198.857 0-360.651 161.796-360.651 360.596 0 20.594 16.674 37.269 37.281 37.269 20.606 0 37.281-16.675 37.281-37.269 0-157.695 128.337-286.032 286.089-286.032 91.721 0 178.515 44.454 232.181 118.942 12.05 16.639 35.352 20.425 52.061 8.447 16.713-12.053 20.463-35.352 8.448-52.063-67.68-93.859-177.086-149.89-292.69-149.89zM102.741 218.751a37.272 37.272 0 0 0-18.167 4.732c-17.95 10.048-24.393 32.766-14.345 50.752l74.417 132.962c7.1 12.779 18.858 22.099 33.021 26.141 14.236 4.004 29.163 2.292 42.124-4.916l133.033-74.346c17.947-10.05 24.393-32.768 14.345-50.754-10.085-17.948-32.768-24.355-50.753-14.344l-116.139 64.987-64.951-116.14c-6.846-12.194-19.514-19.074-32.585-19.074z"  horiz-adv-x="1024" />

    
    <glyph glyph-name="shezhi" unicode="&#58934;" d="M573.892-63.124H447.916c-50.207 0-85.261 34.053-85.261 82.803v54.473c0 10.735-8.208 24.691-15.981 27.195l-5.226 2.459c-11.67 7.448-27.259 7.448-38.929 0l-45.396-24.993c-40.127-23.123-92.055-9.254-117.79 31.962L76.259 213.779c-11.474 18.398-15.001 40.018-9.819 60.768 5.617 22.425 21.25 42.456 42.87 54.932l48.421 26.127c7.773 2.504 15.981 16.461 15.981 27.172 0 10.713-8.229 24.69-16.003 27.194l-3.919 1.676-44.067 24.189c-39.125 22.557-53.365 68.889-35.032 112.869l1.567 3.071 62.989 102.853c25.821 41.324 77.706 55.237 118.29 31.875l43.697-23.972c12.955-8.274 28.587-8.252 40.214-0.784 12.89 8.252 21.207 19.899 21.207 29.654v54.475c0 48.749 35.054 82.801 85.261 82.801h125.976c50.207 0 85.261-34.052 85.261-82.801v-54.475c0-10.733 8.209-24.69 15.981-27.194l5.226-2.46c11.67-7.447 27.259-7.447 38.929 0l45.396 24.995c40.802 23.536 91.618 9.907 117.811-31.94l63.075-103.027c11.475-18.398 14.979-40.04 9.798-60.767-5.617-22.426-21.25-42.457-42.87-54.933l-64.446-31.025V365.6l64.207-35.991c38.929-22.447 53.19-68.757 34.901-112.736l-1.59-3.093-62.966-102.853c-23.1-36.928-70.347-50.578-115.197-33.378l-2.482 1.153-56.695 30.221 20.988 39.344 55.39-29.546c20.617-7.424 46.832-5.509 60.091 15.676l61.878 101.069c7.271 18.963 5.028 43.043-16.373 55.389l-86.741 48.618v93.621l88.244 42.391c9.732 5.683 17.7 15.567 20.4 26.345 2.264 9.036 0.719 18.202-4.464 26.519l-63.053 102.984c-13.063 20.858-38.059 28.043-58.023 16.547l-44.524-24.451c-24.429-15.654-57.327-16.133-83.39-0.675-27.65 10.625-44.089 42.696-44.089 68.648v54.475c0 23.928-15.197 38.21-40.671 38.21H447.916c-25.474 0-40.671-14.282-40.671-38.21v-54.475c0-25.321-15.61-50.447-41.759-67.189-26.432-16.939-60.571-16.939-87.003 0l-42.827 23.427c-20.314 11.757-45.374 4.616-58.481-16.46l-61.921-101.09c-7.293-18.964-5.051-43.044 16.351-55.39l42.021-23.056c28.021-10.408 44.677-42.74 44.677-68.867s-16.656-58.459-44.677-68.845l-42.435-23.296c-10.821-6.249-18.79-16.133-21.489-26.911-2.243-9.014-0.697-18.18 4.485-26.497l63.075-103.005c13.042-20.902 38.058-28.043 57.98-16.548l44.525 24.451c24.407 15.654 57.305 16.176 83.388 0.675 27.651-10.626 44.089-42.696 44.089-68.65v-54.473c0-23.929 15.198-38.212 40.671-38.212h125.976c25.474 0 40.671 14.283 40.671 38.212v54.473c0 17.594-3.179 22.123-14.914 29.654l24.081 37.537c25.168-16.156 35.423-35.619 35.423-67.191v-54.473c0-48.749-35.053-82.802-85.26-82.802zM510.925 209.186c-100.806 0-179.753 76.247-179.753 173.592 0 97.345 78.947 173.592 179.753 173.592 100.763 0 179.71-76.247 179.71-173.592 0.001-97.345-78.947-173.592-179.71-173.592z m0 302.594c-75.79 0-135.164-56.674-135.164-129.002 0-72.327 59.374-129.002 135.164-129.002 75.769 0 135.12 56.675 135.12 129.002 0 72.327-59.351 129.002-135.12 129.002z"  horiz-adv-x="1024" />

    
    <glyph glyph-name="shanchu" unicode="&#58935;" d="M959.333 384.203c0-247.179-200.412-447.562-447.561-447.562-247.208 0-447.561 200.383-447.561 447.562 0 247.178 200.353 447.56 447.561 447.56 247.149 0 447.561-200.382 447.561-447.56zM710.261 643.968l61.715-61.744-197.964-198.021 197.964-197.994-61.715-61.771-198.022 198.021-198.954-198.926-61.773 61.744 198.955 198.925-198.955 198.925 61.773 61.744 198.954-198.896 198.022 197.993z"  horiz-adv-x="1024" />

    
    <glyph glyph-name="shengji" unicode="&#58936;" d="M733.017-29.509c-20.191 0-38.158 7.518-51.973 21.737l-1.764 1.82-0.488 0.216c-12.891 13.544-19.975 31.212-19.975 49.964 0 3.23 0.408 7.002 0.76 10.639l0.923 8.848-7.681 4.695-140.012 82.206-147.747-87.01 1.492-9.39c0.543-3.364 0.679-6.948 0.679-9.988 0-40.653-33.164-73.737-73.955-73.737-19.839 0-38.375 7.735-52.243 21.794-13.651 13.895-21.494 32.811-21.494 51.943 0 19.649 7.653 38.348 21.575 52.65 10.394 10.423 24.045 17.532 39.326 20.464l8.955 1.737 37.344 167.559-127.88 112.22-11.073-3.69c-11.236-4.697-20.436-6.541-29.88-6.541-20.545 0-38.728 7.435-52.678 21.576-13.841 13.651-21.711 32.595-21.711 52.162 0 19.677 7.871 38.729 21.576 52.244 14.411 13.813 33.218 21.493 52.814 21.493 17.965 0 35.579-6.893 49.611-19.377 6.214-6.079 10.665-12.159 14.953-19.92l4.396-7.952 170.924 16.256 68.879 158.385-7.11 6.676c-2.877 2.714-5.7 6.188-8.414 10.259-7.708 11.425-12.077 25.945-12.077 39.84 0 40.872 33.272 74.145 74.172 74.145 19.676 0 38.076-7.653 51.782-21.576 14.004-13.977 21.955-33.083 21.955-52.569 0-14.438-4.315-28.551-12.131-39.84-2.551-4.261-5.157-7.274-8.685-11.019l-6.297-6.622 68.146-157.68 171.168-16.256 4.397 8.006c4.722 8.522 9.715 14.927 15.253 19.594 14.058 12.811 31.48 19.649 49.556 19.649 19.649 0 38.32-7.653 52.651-21.575l0.84-1.167c13.543-15.036 20.464-32.458 20.464-50.995 0-19.486-7.817-38.457-21.44-52.081-13.65-14.032-32.269-21.657-52.515-21.657-10.664 0-21.657 2.361-29.473 6.324l-1.141 0.595-10.746 3.149-127.69-112.058 37.343-167.559 8.93-1.737c15.143-2.932 28.711-10.07 39.242-20.572l3.637-3.093c11.208-13.247 18.021-30.912 18.021-49.449 0.002-39.974-33.651-73.735-73.491-73.735z m-19.189 46.11c5.973-3.719 12.513-5.671 19.188-5.671 7.952 0 15.795 2.822 21.494 7.733l2.091 2.063c6.214 6.188 9.688 14.575 9.688 23.503 0 8.847-2.985 16.664-8.575 22.608-8.468 7.734-16.448 10.908-24.698 10.908l-3.936-0.08-1.98-0.217c-3.528-0.652-5.7-0.814-7.844-0.814h-10.773l-2.687-10.423c-0.626-2.441-1.113-3.771-1.792-4.938-1.357-2.226-2.958-4.83-3.773-8.713-0.651-2.387-0.977-4.911-0.977-8.331 0-7.488 2.715-14.981 7.79-21.738l0.461-0.949 0.869-0.787 3.257-4.153h2.197z m-420.551 61.144c-9.309 0-18.265-3.906-23.964-10.447-5.537-4.723-9.309-13.381-9.309-23.069 0-9.391 3.853-18.183 10.557-24.127 4.423-5.266 13.379-9.172 22.715-9.172 18.482 0 33.517 14.953 33.517 33.299 0 5.427-1.194 10.423-3.636 15.361-2.145 3.881-2.741 5.267-3.148 6.729l-2.714 10.315h-10.693c-1.9 0-3.719 0.27-5.591 0.46-2.28 0.272-4.614 0.517-7.11 0.625l-0.624 0.026z m220.182 116.511c3.528 0 6.948-0.87 10.095-2.606l179.719-106.223-45.432 201.456c-2.497 8.196-0.028 16.744 5.699 21.873l156.893 138.059-194.996 18.183v0.272l-12.864 1.139c-7.328 0.515-13.517 5.103-16.175 11.914l-83.672 191.902-82.205-191.495c-2.986-7.165-9.473-11.914-16.99-12.565l-207.833-19.351L362.13 308.702c3.311-2.957 8.685-9.608 6.351-19.568l-45.35-203.599 179.283 105.654c3.392 2.008 7.191 3.067 11.045 3.067z m332.92 292.616c-6.325-5.048-10.477-12.592-11.209-20.571-0.271-2.28-0.625-3.854-1.031-4.723l-4.181-9.227 10.096-9.12c0.979-0.84 1.9-1.519 2.606-2.388 4.505-4.938 8.467-7.761 13.08-9.552 3.908-1.222 7.871-2.442 12.647-2.442 9.445 0 17.994 3.582 24.1 10.041 6.079 6.514 9.417 14.818 9.417 23.476 0 7.681-2.577 15.117-7.407 21.468l-1.63 2.171-2.334 1.384c-4.315 4.858-12.863 8.495-22.146 8.495-8.467-0.002-16.392-3.258-22.008-9.012z m-688.472 9.01c-8.903 0-17.18-3.365-23.91-9.662-4.452-4.994-10.258-13.297-10.258-23.855 0-7.789 3.039-15.469 9.064-22.771 7.761-7.49 16.04-10.746 25.104-10.746 4.206 0 8.141 0.759 12.022 2.334 4.668 2.089 7.572 4.07 9.553 5.48l3.095 2.172 1.031 2.333 0.922 0.869c1.438 1.222 2.877 2.498 4.342 3.963l6.595 6.567-3.609 8.631c-0.38 0.868-0.705 2.984-0.95 4.722-0.787 7.653-4.37 15.306-9.58 20.138l-1.194 1.086-1.357 0.786c-4.208 4.452-12.485 7.953-20.87 7.953z m327.002 206.152c3.827-5.7 9.119-10.015 15.252-12.539 1.412-0.57 2.796-1.411 4.179-2.605l10.205-8.468 8.956 9.798v-0.028c0.026 0 0.759 0.543 2.714 1.357 5.4 2.333 10.068 6.08 14.438 11.507 5.048 7.708 5.673 15.252 5.673 19.215 0 18.726-14.846 33.924-33.083 33.924-17.451 0-31.861-13.407-33.545-30.504h-8.847l14.058-21.657z"  horiz-adv-x="1024" />

    
    <glyph glyph-name="shishifangtai" unicode="&#58937;" d="M850.082 417.467H623.187c-41.865 0-75.933 34.044-75.933 75.838V720.25c0 41.842 34.067 75.885 75.933 75.885h226.896c41.866 0 75.91-34.043 75.91-75.885v-226.944c-0.001-41.795-34.045-75.839-75.911-75.839zM401.094 417.467H174.197c-41.866 0-75.909 34.044-75.909 75.838V720.25c0 41.842 34.043 75.885 75.909 75.885h226.896c41.865 0 75.933-34.043 75.933-75.885v-226.944c0-41.795-34.067-75.839-75.932-75.839zM850.082-31.57H623.187c-41.865 0-75.933 34.043-75.933 75.838V271.352c0 41.795 34.067 75.838 75.933 75.838h226.896c41.866 0 75.91-34.043 75.91-75.838v-227.084c-0.001-41.795-34.045-75.838-75.911-75.838zM401.094-31.57H174.197c-41.866 0-75.909 34.043-75.909 75.838V271.352c0 41.795 34.043 75.838 75.909 75.838h226.896c41.865 0 75.933-34.043 75.933-75.838v-227.084c0-41.795-34.067-75.838-75.932-75.838z"  horiz-adv-x="1024" />

    
    <glyph glyph-name="shouyiyuebao" unicode="&#58938;" d="M660.244 552.514s69.324 47.994 69.324 138.647c0 90.613-47.993 106.612-218.641 106.612-170.646 0-218.598-15.999-218.598-106.612 0-90.653 69.323-138.647 69.323-138.647-181.307-63.99-207.97-287.918-207.97-287.918 0-309.249 357.245-259.506 357.245-259.506s357.246-49.743 357.246 259.506c0.001 0-26.661 223.927-207.929 287.918z m-31.506-114.1l-69.609-127.29h44.209c5.736 0 10.42-4.662 10.42-10.423v-31.464c0-5.761-4.684-10.423-10.42-10.423h-62.159v-22.958h62.159c5.736 0 10.42-4.661 10.42-10.422v-31.67c0-5.758-4.684-10.42-10.42-10.42h-62.159v-52.551a10.403 10.403 0 0 0-10.423-10.421h-39.654c-5.741 0-10.423 4.66-10.423 10.421v52.551h-64.356c-5.741 0-10.42 4.662-10.42 10.42v31.67c0 5.761 4.68 10.422 10.42 10.422h64.356v22.958h-64.356c-5.741 0-10.42 4.662-10.42 10.423v31.464c0 5.761 4.68 10.423 10.42 10.423h45.55l-68.753 127.35a10.405 10.405 0 0 0 0.203 10.279 10.43 10.43 0 0 0 8.955 5.088h45.349c3.988 0 7.652-2.279 9.402-5.882l53.858-111.213c0.369-0.771 0.736-1.543 1.102-2.379 0.57 1.16 1.143 2.32 1.712 3.479L567.76 448.02a10.42 10.42 0 0 0 9.361 5.82h42.457c3.706 0 7.085-1.934 8.957-5.109a10.479 10.479 0 0 0 0.203-10.317z"  horiz-adv-x="1024" />

    
    <glyph glyph-name="shouyizhenduan" unicode="&#58939;" d="M953.507 127.453l-81.22 85.6c21.855 35.051 34.495 76.347 34.495 120.527 0 126.538-103.56 229.492-230.86 229.492-98.894 0-183.448-62.142-216.264-149.193-0.186 0.006-0.368 0.028-0.556 0.028H397.18a18.828 18.828 0 0 1-18.172-13.928L363.5 342.363l-19.689 213.322c-0.827 8.985-7.928 16.133-16.915 16.997a18.77 18.77 0 0 1-19.872-13.414l-45.716-155.449-17.271 45.605a18.82 18.82 0 0 1-15.765 12.054c-7.148 0.661-14.021-2.72-17.805-8.783l-32.661-52.497h-76.273V617.516c0 37.099 30.428 67.27 67.839 67.27h470.61c37.411 0 67.84-30.171 67.84-67.27 0-10.4 8.425-18.815 18.816-18.815 10.39 0 18.814 8.415 18.814 18.815 0 57.844-47.314 104.901-105.471 104.901h-470.61c-58.156 0-105.47-47.057-105.47-104.901v-467.571c0-57.844 47.314-104.9 105.47-104.9h411.517c10.392 0 18.817 8.415 18.817 18.815s-8.426 18.814-18.817 18.814H169.371c-37.411 0-67.839 30.173-67.839 67.271V362.559h86.728a18.829 18.829 0 0 1 15.977 8.874l18.09 29.078 23.638-62.429c2.848-7.552 10.308-12.641 18.31-12.127 8.076 0.294 15.059 5.733 17.337 13.487l33.773 114.852 20.285-219.808c0.836-9.077 8.048-16.244 17.126-17.016 0.542-0.056 1.084-0.073 1.617-0.073 8.434 0 15.931 5.659 18.164 13.927l39.019 144.94h37.49a228.557 228.557 0 0 1-4.021-42.685c0-126.527 103.559-229.462 230.857-229.462 69.101 0 131.195 30.337 173.541 78.307l76.741-80.88a18.772 18.772 0 0 1 13.652-5.86c4.648 0 9.315 1.709 12.954 5.163 7.534 7.148 7.846 19.073 0.697 26.606z m-277.585 14.296c-106.544 0-193.227 86.049-193.227 191.831 0 105.793 86.683 191.86 193.227 191.86 106.547 0 193.228-86.066 193.228-191.86-0.001-105.782-86.681-191.831-193.228-191.831z"  horiz-adv-x="1024" />

    
    <glyph glyph-name="shouyetianchong" unicode="&#58940;" d="M746.117 633.683v78.985c0 11.754 9.551 21.279 21.304 21.279 11.755 0 21.278-9.525 21.278-21.279V602.93l118.883-85.875c7.475-5.42 10.615-14.996 7.778-23.76a21.244 21.244 0 0 0-20.241-14.743H873.84v-489.563c0-11.754-9.549-21.281-21.303-21.281H171.438c-5.624 0-11.044 2.28-15.048 6.234-3.976 4-6.231 9.422-6.231 15.047V478.551H128.88a21.243 21.243 0 0 0-20.24 14.743c-2.837 8.764 0.303 18.34 7.776 23.76l383.12 276.727c7.422 5.37 17.504 5.37 24.926 0l221.655-160.098zM384.302 10.266h255.396V201.722c0 70.523-57.15 127.776-127.698 127.828-70.372 0-127.698-57.2-127.698-127.828v-191.456z m0 0"  horiz-adv-x="1024" />

    
    <glyph glyph-name="qunaer" unicode="&#58941;" d="M956.292 206.403c-0.084 16.653-0.127 33.348-0.191 50.047-4.143 3.144-8.328 6.243-12.448 9.303-0.085 2.125-0.085 4.206-0.085 6.329-3.102 2.041-6.203 4.124-9.346 6.202 0 2.084-0.022 4.164-0.022 6.266-3.102 2.107-6.288 4.102-9.367 6.227 0 3.1-0.064 6.202-0.064 9.389-2.039 0.978-4.184 2.083-6.267 3.058 0 6.289-0.02 12.536-0.02 18.823 5.204 0 10.408 0.04 15.591 0.084 1.615 13.129 4.376 10.111 9.263 18.778-4.144 3.102-8.285 6.202-12.513 9.305v3.187c-2.061 0-4.142 0-6.203-0.044-1.063 2.039-2.187 4.164-3.143 6.246h-6.266c-5.227 6.245-10.452 12.427-15.657 18.736 0 3.081-0.064 6.205-0.064 9.307h-3.122c-2.21 34.413-4.354 68.868-6.585 103.258h-3.164v6.268c-2.104 1.02-4.166 2.082-6.245 3.102 0 2.082-0.044 4.206-0.044 6.287-3.06 2.082-6.246 4.121-9.347 6.202 0 2.082 0 4.206-0.064 6.224-17.736 18.716-35.495 37.494-53.21 56.144h-6.268a2253.957 2253.957 0 0 1-18.799 21.837c-2.062 1.063-4.144 2.082-6.184 3.102v6.288a366.226 366.226 0 0 0-9.474 6.245v6.203c-2.08 1.062-4.205 2.082-6.244 3.144 0 2.082 0 4.122-0.085 6.245h-3.081c0 3.102 0 6.246-0.02 9.389-1.04 0-2.104 0-3.103-0.042-4.462 14.53 6.712 20.945 9.262 28.209 0 6.288-0.021 12.49-0.021 18.778-9.433 1.997-18.777 4.121-28.212 6.161-2.06 9.431-5.649 11.853-9.366 18.777-6.246 0-12.447-0.042-18.778-0.127-21.241-7.01-34.35-24.769-62.24-25.193-3.017 12.703-10.027 18.396-12.64 31.226-6.268-0.042-12.469-0.042-18.693-0.042-2.442-13.127-6.734-30.334-15.508-37.642v-3.101c-8.305 0-16.611-0.128-24.957-0.128v-3.1c-5.143-1.062-10.41-2.167-15.552-3.208-2.847-13.212-10.152-21.136-15.464-31.311-24.004-0.128-47.922-0.234-71.821-0.277 0.022-2.081 0.022-4.164 0.022-6.331-3.081-0.977-6.203-2.039-9.283-3.101v-3.102h-6.33c-0.957-2.167-2.04-4.206-3.017-6.33h-6.245c-2.103-3.144-4.143-6.246-6.267-9.432-2.018 0-4.121-0.042-6.245-0.042-2.04-3.102-4.142-6.246-6.16-9.389-7.328-6.288-14.551-12.575-21.773-18.864-3.123-5.183-6.182-10.451-9.347-15.676h-9.347c-8.306-3.612-15.952-8.836-28.061-9.474-15.613-0.085-31.205-0.127-46.754-0.17v3.102c-3.166 0-6.245-0.042-9.41-0.042v3.164c-2.125-0.063-4.165-0.063-6.268-0.063v3.144h-6.266c-2.125 3.144-4.143 6.203-6.267 9.303h-6.267c-2.039 3.146-4.142 6.247-6.202 9.39h-3.144v6.203a1771.033 1771.033 0 0 0-9.369 6.288 1000.759 1000.759 0 0 0-3.186 12.512c-2.104 0.998-4.121 2.018-6.267 3.08 0 3.144 0 6.287-0.021 9.389-1.041 0-2.082 0-3.145-0.042-0.021 2.124-0.021 4.163-0.021 6.33h-3.059c-5.353 24.96-10.62 50.004-15.953 74.985-24.938-0.127-49.835-0.212-74.879-0.254 0-1.02 0.022-2.082 0.022-3.144h-9.347v-3.144c-9.347-0.042-18.715-0.085-28.063-0.085v-3.144c-5.183 0-10.387-0.042-15.591-0.042v-3.144c-4.142 0-8.305-0.042-12.448-0.042-9.538-3.866-16.271-13.871-24.938-18.863-0.893-5.565-2.868-24.514-6.096-28.188v-3.122c5.203 0 10.345 0.042 15.548 0.042v-3.144c3.166 0.042 6.245 0.042 9.432 0.085v-3.144h9.368v-3.102h9.347v-3.144c18.014-5.778 34.285 4.036 46.839-9.176 7.753-2.167 5.099-1.488 9.41-6.203h3.124v-6.288c2.103-1.041 4.142-2.083 6.266-3.123 0-5.205 0-10.409 0.065-15.614h3.101c0.021-3.144 0.021-6.245 0.086-9.389 0.998 0 2.06 0.065 3.079 0.065 1.063-4.229 2.061-8.392 3.187-12.556 2.061-1.02 4.143-2.081 6.267-3.122v-6.224c3.102-2.124 6.266-4.206 9.368-6.246 0.021-2.082 0.021-4.163 0.021-6.245 3.144-2.125 6.266-4.164 9.347-6.288 0.064-2.039 0.064-4.121 0.085-6.245a411.296 411.296 0 0 0 6.245-3.102c4.164-5.182 8.328-10.365 12.533-15.591 2.04 0.042 4.079 0.042 6.203 0.042 2.102-3.101 4.226-6.246 6.266-9.389 2.082 0 4.228 0 6.246 0.043 4.164-5.184 8.413-10.409 12.555-15.635 4.142-1.02 8.285-2.039 12.512-3.059a906.005 906.005 0 0 1 6.288-9.389 921.12 921.12 0 0 0 18.693-6.203c1.126-2.082 2.124-4.121 3.166-6.246 2.039 0.043 4.163 0.043 6.267 0.085v-3.187c6.245-2.039 12.511-4.079 18.714-6.16v-3.145c28.104-0.933 56.186-1.826 84.312-2.803 2.995-3.739 10.218-6.203 12.512-9.347v-6.287c2.059-0.978 4.164-2.041 6.266-3.06 7.265-10.898 6.904-18.055 18.821-25.023 0.021-7.265 0.021-14.615 0.084-21.882-11.429-21.922-22.729-43.845-34.158-65.854-8.284-7.305-16.569-14.698-24.874-21.963a455.369 455.369 0 0 0-3.059-9.431c-0.998 0-2.125-0.045-3.081-0.045-1.062-12.468-2.06-24.937-3.08-37.512 18.587-2.144 23.557-18.227 34.413-28.083 3.186-1.02 6.33-1.997 9.346-3.059 2.188-3.144 4.25-6.246 6.374-9.347h3.165v-6.289c6.181-5.183 12.511-10.364 18.714-15.59v-6.246c5.268-4.164 10.494-8.285 15.698-12.407 1.063-4.203 2.103-8.367 3.187-12.576 2.102-1.019 4.142-2.057 6.181-3.058 0-2.038 0.085-4.161 0.085-6.286h3.101c0-2.084 0-4.143 0.085-6.244h3.081c0-3.103 0-6.287 0.021-9.348h3.144c0.022-12.533 0.107-25.023 0.128-37.515-2.102-1.062-4.142-2.167-6.245-3.185v-9.391h-3.08c1.89-6.245-0.447-2.72 3.144-6.245 8.008-8.285 20.116-5.481 31.226-3.06-1.146 33.988-4.312 44.143 18.523 56.421-0.042 5.183-0.042 10.45-0.042 15.633a254.49 254.49 0 0 0-6.246 3.146c-0.106 29.187-0.233 58.373-0.317 87.581-1.083 10.387-2.209 20.881-3.293 31.312h-3.102c-0.063 17.692-0.085 35.496-0.19 53.171h-3.102c-0.063 8.325-0.085 16.695-0.085 25.021h3.1c-0.02 9.391-0.105 18.778-0.105 28.128 2.103 1.103 4.207 2.125 6.266 3.142 0 2.125-0.041 4.248-0.041 6.373 24.746 0.552 36.663 5.417 52.999 12.663 3.125 0 6.204 0 9.369 0.043v3.059c2.04 0 4.142 0.043 6.244 0.043v3.143c3.082 0 6.203 0.044 9.347 0.044 0.999 2.04 2.061 4.205 3.123 6.288h9.325c1.063 2.124 2.04 4.164 3.081 6.288 6.246 2.081 12.532 4.164 18.712 6.289v3.142l12.429 3.186v3.146c7.328 0.042 14.552 0.042 21.858 0.042 0 1.063 0 2.124-0.021 3.187 23.919-0.997 47.839-1.955 71.8-2.932-0.957-18.48-12.194-54.338-6.013-75.112 1.062 0 2.103 0.039 3.144 0.039 0-4.164 0.023-8.369 0.043-12.488h3.145c1.062-4.207 2.062-8.328 3.186-12.576h3.103c-1.041-16.634-1.999-33.309-2.975-50.048h-3.104c0.022-8.327 0.045-16.654 0.13-24.98-1.063 0-2.125-0.084-3.164-0.084 0.063-5.184 0.063-10.408 0.063-15.636h-3.144c0-3.145 0.063-6.287 0.063-9.432h-3.146c0.087-5.183 0.087-10.408 0.087-15.594h-3.103v-6.329h-3.166c0.021-3.058 0.021-6.244 0.021-9.347h-3.101c-0.956-6.286-2.018-12.532-2.995-18.8-2.188-1.081-4.228-2.102-6.268-3.12 0-3.187 0.022-6.289 0.022-9.434-2.104-1.02-4.122-2.081-6.184-3.101v-9.409a429.244 429.244 0 0 0-6.224-3.169 662.355 662.355 0 0 0-3.123-12.531h-3.057a346.046 346.046 0 0 1-3.102-9.474c-2.103-1.021-4.142-2.082-6.225-3.102v-6.244c-3.103-2.123-6.267-4.249-9.347-6.33v-6.205h-3.08c-1.063-2.123-2.124-4.205-3.079-6.285h-6.289c0-1.106 0-2.082 0.021-3.166-5.204-4.143-10.322-8.349-15.526-12.597v-6.202c-1.041 0-2.04 0-3.165-0.045 1.125-3.143 2.124-6.221 3.185-9.407 26.936-0.063 27.892 5.84 40.468 18.925 3.144 2.083 6.331 4.164 9.409 6.31 0 3.124-0.062 6.267-0.062 9.41 2.08 1.041 4.204 2.104 6.244 3.122v9.456h3.081c0 2.037-0.022 4.117-0.022 6.242h3.123c0 2.084 0 4.164-0.042 6.203h3.123v6.288h3.08v6.287h3.079v6.244c1.063 0.045 2.104 0.045 3.187 0.045 3.08 4.203 6.161 8.326 9.326 12.531h6.243c1.489 10.834 6.608 18.757 12.344 25.109 2.038 1.062 4.142 2.081 6.244 3.187v6.289c2.04 0.975 4.077 2.038 6.202 3.1 4.121 5.226 8.264 10.493 12.406 15.679a326.745 326.745 0 0 1 9.326 6.328v9.348h3.102v6.266h3.102c0 6.266-0.043 12.553-0.043 18.799h3.122c-0.021 5.228-0.021 10.453-0.105 15.678h3.165c-0.022 11.471-0.084 22.942-0.106 34.412 3.611 12.915 8.051 31.864 9.155 46.99 5.204 0 10.408 0 15.612 0.04 3.167-4.204 6.266-8.325 9.349-12.532 9.452-8.241 18.863-16.567 28.23-24.896 0.021-2.083 0.021-4.162 0.021-6.245 4.206-3.103 8.369-6.246 12.534-9.347 0-2.084 0-4.164 0.063-6.246a182.816 182.816 0 0 1 6.183-3.101v-3.145l6.287-3.145v-6.202c3.164-2.103 6.245-4.207 9.411-6.246 2.058-6.244 4.184-12.533 6.287-18.819 20.498-32.458 28.273-55.4 28.442-109.356 0.043-19.839 0.151-39.679 0.256-59.479-3.103-2.079-6.266-4.204-9.368-6.287-2.04-6.287-4.119-12.491-6.182-18.819 18.417 0.17 27.317 3.821 40.596 6.414a759.894 759.894 0 0 1 2.973 12.533h3.187c-0.106 32.33-0.232 64.705-0.404 97.035-0.002 11.511 2.527 31.225-3.209 37.556z m-479.419 1.359c-0.021 1.657-0.021 3.355-0.042 4.97-20.033 5.184-22.093 30.63-34.902 42.144 0.063 13.469 0.19 23.476 4.865 32.289h2.463c-0.021 1.765-0.021 3.398-0.021 5.057 1.614 0.849 3.314 1.635 4.971 2.504 0.871 3.273 1.614 6.63 2.464 9.902h2.464c3.293 4.205 6.584 8.306 9.877 12.49h4.971c6.924-35.263 13.361-68.274 12.766-111.736-3.29 0.766-6.583 1.573-9.876 2.38z"  horiz-adv-x="1024" />

    
    <glyph glyph-name="shouyexianxing" unicode="&#58942;" d="M837.91-32.219H186.027c-11.456 0-20.736 9.306-20.736 20.736V392.625c0 11.432 9.281 20.688 20.736 20.688 11.431 0 20.686-9.256 20.686-20.688v-383.421h610.511V392.423c0 11.431 9.257 20.688 20.687 20.688 11.455 0 20.737-9.257 20.737-20.688v-403.905c-0.001-11.431-9.283-20.737-20.738-20.737zM898.957 474.863c-4.628 0-9.256 1.518-13.125 4.704L511.969 748.938 138.106 479.567c-8.877-7.283-21.925-5.968-29.158 2.883-7.232 8.851-5.942 21.899 2.909 29.183l386.987 280.145c7.638 6.221 18.613 6.221 26.25 0l386.987-280.145c8.852-7.283 10.142-20.332 2.908-29.183-4.096-5.007-10.064-7.587-16.032-7.587zM622.023 45.113c-11.455 0-20.711 9.306-20.711 20.736v164.83c0 46.531-44.128 84.362-89.344 84.362s-89.344-37.831-89.344-84.362V65.85c0-11.431-9.255-20.736-20.71-20.736-11.456 0-20.711 9.306-20.711 20.736V230.679c0 69.392 62.715 125.784 130.766 125.784s130.767-56.393 130.767-125.784V65.85c-0.001-11.431-9.257-20.737-20.713-20.737zM769.328 592.96c-11.43 0-20.686 9.306-20.686 20.736v96.449c0 11.431 9.256 20.687 20.686 20.687 11.456 0 20.736-9.255 20.736-20.687v-96.449c0-11.43-9.28-20.736-20.736-20.736z"  horiz-adv-x="1024" />

    
    <glyph glyph-name="shuaqia" unicode="&#58943;" d="M239.665 113.149c20.022-42.709 70.903-61.117 113.633-41.105l526.144 246.635c42.719 20.051 61.127 70.902 41.105 113.652l-11.96 25.505-680.882-319.14 11.96-25.547zM672.71 759.693L146.575 513.099c-42.729-20.052-61.137-70.943-41.115-113.653l73.269-156.324L859.61 562.306l-73.269 156.281c-20.021 42.751-70.903 61.158-113.631 41.106zM306.357 339.61c-8.673-4.049-18.167-3.889-26.358-0.439-2.626-8.5-8.562-15.92-17.234-19.971-16.312-7.66-35.732-0.643-43.382 15.68-7.649 16.322-0.621 35.732 15.701 43.391 8.662 4.051 18.167 3.851 26.367 0.482 2.607 8.463 8.553 15.88 17.215 19.951 16.312 7.641 35.752 0.623 43.392-15.699 7.639-16.322 0.61-35.733-15.701-43.395zM707.719 48.585H146.385c-8.501 0-15.399 6.896-15.399 15.398s6.897 15.4 15.399 15.4h561.334c8.502 0 15.4-6.898 15.4-15.4s-6.898-15.398-15.4-15.398z"  horiz-adv-x="1024" />

    
    <glyph glyph-name="tianjia" unicode="&#58944;" d="M927.995 436.496v-111.723l-358.267-0.025-0.027-358.295-111.748-0.027V324.748l-359.942 0.025v111.75l359.942-0.027V796.437h111.748l0.027-359.941h358.267z"  horiz-adv-x="1024" />

    
    <glyph glyph-name="shouyizaobao" unicode="&#58945;" d="M866.383 557.481L635.181 788.578c-5.418 5.525-13.59 9.195-22.272 9.195H234.411c-23.211 0-44.972-9.601-60.398-25.133-15.638-14.89-24.917-36.161-24.917-60.675v-658.768c0-23.511 9.279-45.146 24.917-60.463h0.32c15.618-15.554 36.867-25.132 60.078-25.132h555.552c23.404 0 44.249 9.194 59.674 24.301l0.918 0.831v0.191c15.424 15.126 24.916 36.994 24.916 60.271V535.207c0 8.193-2.751 16.152-9.088 22.274zM646.36 485.092l-75.545-138.184h47.959c6.273 0 11.308-5.098 11.308-11.305v-34.2c0-6.23-5.034-11.288-11.308-11.288h-67.459v-24.938h67.459a11.277 11.277 0 0 0 11.308-11.328v-34.414c0-6.208-5.034-11.285-11.308-11.285h-67.459v-57.049c0-6.273-5.057-11.328-11.308-11.328h-43.052c-6.252 0-11.308 5.055-11.308 11.328V208.15h-69.893c-6.25 0-11.328 5.077-11.328 11.285v34.414a11.309 11.309 0 0 0 11.328 11.328h69.893v24.938h-69.893c-6.25 0-11.328 5.058-11.328 11.288v34.2c0 6.207 5.078 11.305 11.328 11.305h49.432l-74.627 138.25c-1.899 3.477-1.793 7.743 0.256 11.178a11.296 11.296 0 0 0 9.707 5.525h49.22c4.352 0 8.32-2.474 10.197-6.4l58.478-120.753c0.406-0.831 0.79-1.665 1.215-2.56 0.578 1.237 1.218 2.517 1.836 3.755l58.692 119.645a11.293 11.293 0 0 0 10.177 6.313h46.124c3.99 0 7.681-2.111 9.729-5.546a11.378 11.378 0 0 0 0.17-11.223z m20.099 69.125c-9.516 0-18.392 3.903-24.515 10.219l-0.939 0.618c-5.824 6.336-9.279 14.7-9.279 23.49V701.532l147.613-147.315h-112.88z"  horiz-adv-x="1024" />

    
    <glyph glyph-name="tianehui" unicode="&#58946;" d="M376.334 638.951S116.127 496.095 62.341 232.991c0 0 153.635-135.378 521.378-5.792 0 0 263.14 95.108 377.399 123.897 0 0-12.851 2.984-28.315 8.427-6.038 2.141-8.883 7.899-10.603 10.813-8.637 14.323-44.641 14.323-56.172-7.269 0 0-5.76-9.093-22.576-15.834 0 0-44.623-18.221-140.153-44.131-95.53-25.945-121.001-35.566-234.806-30.299-113.752 5.302-163.711 74.922-171.382 105.643-7.67 30.754-41.287 108.555 79.223 260.505z"  horiz-adv-x="1024" />

    
    <glyph glyph-name="tongbi" unicode="&#58947;" d="M879.604 37.092H163.533V752.845c0 9.959-8.327 18.56-18.286 18.56-10.401 0-18.603-8.601-18.603-18.56V19.034c0-10.525 8.202-18.957 18.603-18.957h734.356c9.98 0 18.286 8.432 18.286 18.957 0.001 9.416-8.305 18.058-18.285 18.058z m-647.818 68.712H832.67c16.76 0 30.466 14.313 30.466 30.947V656.639c0 8.871-3.893 17.639-11.341 23.706-13.035 10.399-32.328 8.83-42.998-3.891L672.814 510.216l-36.931 44.609c-1.38 2.197-2.615 3.536-4.791 4.687-13.015 10.817-32.118 9.435-42.978-3.893L467.637 408.735l-33.855 41.722c-1.066 1.38-1.652 2.343-3.034 3.348-12.324 11.131-31.699 10.587-42.956-1.569L210.443 260.305c-5.859-5.65-9.102-13.685-9.102-21.907v-101.646c0-16.636 13.413-30.948 30.445-30.948z m30.339 120.458l146.508 158.39 35.654-43.667c10.545-12.909 29.963-14.313 42.956-3.913 2.156 1.57 3.515 2.95 4.813 4.687l119.935 146.507 37.307-45.802c10.463-13.392 29.774-15.128 43.103-4.394 1.465 1.611 3.432 3.161 4.771 4.771l105.161 128.073v-209.592L672.814 285.35l-51.724 30.778c-5.48 2.929-12.638 3.097-18.705 0L467.637 236.2l-48.167 28.979c-5.168 2.763-12.22 3.139-17.786 0.42l-139.561-73.046v33.709h0.002z"  horiz-adv-x="1024" />

    
    <glyph glyph-name="tongzhi" unicode="&#58948;" d="M580.408-8.799a18.44 18.44 0 0 0-9.534 2.637L332.19 137.54l-214.559-1.806c-3.358 0.866-9.679 1.877-13.182 5.345-3.468 3.503-5.453 8.197-5.453 13.146V609.704c0 10.221 8.271 18.491 18.491 18.491H331.18l239.515 144.243c5.741 3.395 12.893 3.503 18.635 0.253a18.474 18.474 0 0 0 9.39-16.107l0.181-746.891a18.511 18.511 0 0 0-9.39-16.107 18.519 18.519 0 0 0-9.103-2.385zM337.246 174.557c3.359 0 6.646-0.902 9.535-2.637l215.137-129.507-0.18 681.451L345.841 593.85a18.502 18.502 0 0 0-9.534-2.637h-200.33v-418.354l201.125 1.697 0.144 0.001zM750.836 132.735c-7.584 0-14.699 4.695-17.408 12.244-3.431 9.606 1.554 20.188 11.16 23.655 88.373 31.709 147.746 117.915 147.746 214.484 0 96.643-59.373 182.85-147.746 214.522-9.606 3.431-14.591 14.049-11.16 23.655 3.432 9.57 14.085 14.519 23.655 11.16 103.001-36.91 172.233-137.129 172.233-249.338 0-112.135-69.232-212.318-172.233-249.299a19.017 19.017 0 0 0-6.247-1.083zM708.437 254.155c-6.176 0-12.243 3.106-15.746 8.775-5.346 8.668-2.673 20.08 6.031 25.461 32.106 19.827 52.041 56.122 52.041 94.728 0 39.185-19.465 74.613-52.041 94.801-8.704 5.381-11.377 16.757-5.995 25.425 5.381 8.74 16.866 11.376 25.425 5.995 43.591-26.942 69.594-74.144 69.594-126.221 0-51.317-26.653-99.676-69.594-126.22-3.035-1.841-6.393-2.744-9.715-2.744z"  horiz-adv-x="1024" />

    
    <glyph glyph-name="weixinzhifu" unicode="&#58949;" d="M212.449-5.564l17.4 80.529s11.632 15.922-8.724 34.824C200.816 128.691 58.563 224.246 64.379 425.384c5.816 201.166 242.412 389.851 492.07 360.843 0 0 168.425 0.678 317.948-154.25 0 0 0-5.428-8.772-9.79-8.675-4.362-403.858-186.892-403.858-186.892s-50.116-35.406-84.94-6.81c-34.849 28.572-82.71 61.991-82.71 61.991s-29.444 18.054-29.444-11.462l6.543-24.089 71.854-162.267s9.814-45.705 58.792-17.4c49 28.307 507.337 304.812 507.337 304.812s53.363-80.529 50.092-198.11c-3.272-117.583-100.16-260.2-225.377-316.81-125.169-56.635-252.566-54.43-351.634-33.781 0 0-29.396 18.563-57.725-1.068l-88.164-50.066c0.001-0.001-26.124-13.28-23.942 14.201z"  horiz-adv-x="1024" />

    
    <glyph glyph-name="tousu" unicode="&#58950;" d="M513.007 232.701c-28.184 0-51.058-23.259-51.058-51.996 0-28.688 22.874-51.947 51.058-51.947 28.232 0 51.034 23.308 51.034 51.947 0 28.737-22.873 51.996-51.034 51.996z m-0.024 440.184c-28.185 0-51.059-23.355-51.059-51.996v-266.946c0-28.688 22.874-51.995 51.059-51.995 28.208 0 51.058 23.331 51.058 51.995V620.841c0 28.737-22.897 52.044-51.058 52.044z m390.205-87.7c-0.527 42.288-1.199 88.421-1.272 139.022-0.023 15.33-9.971 28.833-24.412 33.206C760.73 792.638 656.5 813.253 517.813 828.631c-1.777 0.192-3.556 0.241-5.407 0.192-70.4-3.7-136.284-12.446-195.824-26.19-59.636-13.744-116.557-29.001-169.057-45.268-14.321-4.421-24.148-17.876-24.148-33.158 0-45.604-0.48-87.556-0.889-126.433-3.628-333.765-4.998-458.733 320.959-639.66 27.055-14.945 48.919-21.673 70.809-21.673 21.696 0 43.417 6.486 70.353 21.095 324.732 176.748 323.336 281.317 318.579 627.649zM552.532 18.712c-16.459-8.938-28.353-13.022-38.275-13.022-10.044 0-21.505 3.988-38.229 13.312-290.035 160.983-289.074 249.332-285.494 577.956 0.336 31.668 0.745 65.354 0.816 101.348 44.188 13.07 91.233 25.373 140.273 36.666 54.975 12.687 116.053 20.904 181.552 24.364 123.284-13.744 218.433-31.813 320.742-61.271 0.265-40.847 0.769-78.667 1.25-113.842 4.687-338.308 5.599-408.682-282.635-565.511z m0 0"  horiz-adv-x="1024" />

    
    <glyph glyph-name="weixin" unicode="&#58951;" d="M669.891 527.958c10.296 0 20.484-0.772 30.565-1.887C673 653.934 536.297 748.95 380.243 748.95 205.78 748.95 62.86 630.036 62.86 479.049c0-87.177 47.563-158.751 126.991-214.273l-31.732-95.482 110.954 55.647c39.7-7.871 71.549-15.938 111.17-15.938 9.945 0 19.828 0.483 29.629 1.257-6.217 21.222-9.801 43.447-9.801 66.501 0 138.679 119.067 251.197 269.82 251.197z m-170.635 86.05c23.888 0 39.719-15.74 39.719-39.602 0-23.79-15.831-39.728-39.719-39.728-23.791 0-47.661 15.938-47.661 39.728 0 23.879 23.862 39.602 47.661 39.602z m-222.125-79.33c-23.781 0-47.787 15.938-47.787 39.728 0 23.862 24.006 39.602 47.787 39.602s39.62-15.74 39.62-39.602c0-23.79-15.829-39.728-39.62-39.728z m682.427-254.109c0 126.912-126.973 230.336-269.579 230.336-151.004 0-269.918-103.425-269.918-230.336 0-127.107 118.914-230.299 269.918-230.299 31.607 0 63.483 7.959 95.225 15.919l87.046-47.67-23.861 79.313c63.706 47.797 111.169 111.171 111.169 182.737z m-357.084 39.728c-15.811 0-31.759 15.724-31.759 31.751 0 15.793 15.948 31.734 31.759 31.734 23.987 0 39.719-15.941 39.719-31.734-0.001-16.027-15.732-31.751-39.719-31.751z m174.561 0c-15.694 0-31.524 15.724-31.524 31.751 0 15.793 15.83 31.734 31.524 31.734 23.791 0 39.719-15.941 39.719-31.734 0-16.027-15.928-31.751-39.719-31.751z m0 0"  horiz-adv-x="1024" />

    
    <glyph glyph-name="wodexianxing" unicode="&#58952;" d="M511.96 283.064c-142.822 0-259.055 114.943-259.055 256.276 0 141.384 116.232 256.425 259.055 256.425 142.788 0 258.97-115.042 258.97-256.425 0.001-141.333-116.182-256.276-258.97-256.276z m0 472.073c-120.449 0-218.425-96.785-218.425-215.796 0-118.91 97.977-215.647 218.425-215.647 120.364 0 218.34 96.737 218.34 215.647 0.001 119.011-97.976 215.796-218.34 215.796zM900.508-32.294H123.379v20.29c0 107.302 69.601 211.578 186.229 278.946l20.339-35.173C233.658 176.16 173.334 93.811 165 8.334h693.737c-9.128 82.251-72.18 168.123-165.94 223.535l20.688 34.974c113.603-67.119 187.023-176.605 187.023-278.847v-20.29z"  horiz-adv-x="1024" />

    
    <glyph glyph-name="wodetianchong" unicode="&#58953;" d="M497.407 283.404c-142.941 0-259.226 115.072-259.226 256.496 0 141.525 116.285 256.596 259.226 256.596S756.632 681.425 756.632 539.9c0-141.424-116.284-256.496-259.225-256.496zM886.271-32.219H108.542v20.333c0 107.383 69.7 211.782 186.39 279.156 0 0 65.907-69.397 192.965-72.938 122.304-3.338 211.276 72.837 211.276 72.837 113.705-67.171 187.098-176.729 187.098-279.055v-20.333z"  horiz-adv-x="1024" />

    
    <glyph glyph-name="wodedingdan" unicode="&#58954;" d="M844.064-64.223H180.889c-30.542 0-55.376 24.734-55.376 55.125v650.69c0 31.245 24.333 55.728 55.376 55.728h64.827c2.866 20.764 20.713 36.8 42.18 36.8h85.188c7.565 19.406 18.978 37.027 33.557 51.656 28.706 28.278 66.21 43.763 105.825 43.763 39.734 0 77.214-15.51 105.567-43.688 14.832-14.857 26.345-32.502 33.834-51.732h85.163c21.492 0 39.314-16.037 42.18-36.8h64.854c31.019 0 55.351-24.483 55.351-55.728v-650.689c0-30.39-24.836-55.125-55.351-55.125zM180.889 650.164c-4.751 0-8.22-3.595-8.22-8.572v-650.689c0-4.399 3.67-7.969 8.22-7.969h663.176c4.525 0 8.194 3.569 8.194 7.969V641.592c0 4.977-3.443 8.572-8.194 8.572H732.456v36.8H616.325l-4.475 17.848c-4.499 17.922-13.874 34.412-27.122 47.659-38.786 38.56-105.492 38.686-144.856-0.125-12.819-12.871-22.12-29.385-26.795-47.635l-4.524-17.746H292.47v-36.8H180.889zM307 672.107h410.928v-59.976H307zM302.424 95.923c-20.662 0-37.604 16.164-37.604 37.028 0 20.409 16.942 37.026 37.604 37.026 20.386 0 37.052-16.617 37.052-37.026 0.001-20.864-16.665-37.028-37.052-37.028zM302.424 252.827c-20.662 0-37.604 16.389-37.604 36.349 0 21.139 16.942 37.227 37.604 37.227 20.386 0 37.052-16.088 37.052-37.227 0.001-19.96-16.665-36.349-37.052-36.349zM302.424 408.801c-20.662 0-37.604 17.066-37.604 37.252 0 21.115 16.942 37.303 37.604 37.303 20.386 0 37.052-16.188 37.052-37.303 0.001-20.185-16.665-37.252-37.052-37.252zM737.938 110.652H413.805c-12.166 0-22.421 9.955-22.421 22.299 0 12.342 10.256 21.842 22.421 21.842h324.132c12.165 0 22.171-9.5 22.171-21.842 0-12.344-10.005-22.299-22.17-22.299zM737.938 267.331H413.805c-12.166 0-22.421 10.231-22.421 21.845 0 12.542 10.256 22.773 22.421 22.773h324.132c12.165 0 22.171-10.231 22.171-22.773 0-11.614-10.005-21.845-22.17-21.845zM737.938 423.983H413.805c-12.166 0-22.421 9.98-22.421 22.071 0 12.141 10.256 22.346 22.421 22.346h324.132c12.165 0 22.171-10.205 22.171-22.346 0-12.091-10.005-22.071-22.17-22.071z"  horiz-adv-x="1024" />

    
    <glyph glyph-name="xiala" unicode="&#58955;" d="M64.212 511.748v-153.907c0-32.955 24.957-59.675 55.734-59.675l380.848-40.254L903.6 298.166c30.777 0 55.733 26.72 55.733 59.675V511.748H64.212z"  horiz-adv-x="1024" />

    
    <glyph glyph-name="wodeyouhuiquan" unicode="&#58956;" d="M67.792 297.525c26.584 0.896 41.437 10.912 58.297 31.156 12.193 14.588 18.724 31.594 19.45 50.655 0.919 24.237-7.015 45.258-23.707 62.747-16.546 17.345-30.092 25.69-53.992 26.368-0.097 1.693-0.242 2.854-0.242 4.039-0.025 54.984-0.098 102.785 0.023 157.793 0.072 27.553 17.392 49.953 43.228 56.17 5.031 1.209 10.377 1.621 15.554 1.621 263.795 0.073 520.411 0.073 784.229 0.048 34.593 0 48.454-16.981 48.525-51.549 0.146-54.332 0-108.639 0.146-162.945 0-4.136-1.16-5.467-5.345-5.66-45.261-2.25-70.685-41.1-69.525-86.574 1.14-45.042 24.409-80.167 69.67-83.41 3.75-0.24 5.2-1.162 5.2-5.296-0.169-54.671 0.049-109.315-0.169-163.961-0.096-29.561-8.757-45.116-37.084-50.123-4.111-0.726-8.417-0.726-12.676-0.726-262.947-0.047-518.692 0.121-781.688-0.217-32.028-0.023-53.823 21.238-58.589 44.702-0.871 4.282-1.451 8.731-1.451 13.086-0.073 55.179-0.073 103.123-0.073 158.327 0.026 0.969 0.121 1.986 0.219 3.749z m305.014-170.153c2.371-0.12 4.04-0.267 5.685-0.267 167.402 0 334.75 0 502.098 0.049 3.677 0 7.5 0.17 11.03 1.063 13.402 3.461 21.386 14.563 21.386 29.609 0.097 29.609-0.072 59.22 0.193 88.826 0.047 4.815-1.549 7.065-5.807 9.097-55.128 26.487-87.616 87.012-78.134 147.46 7.74 49.179 34.496 85.054 79.054 107.43 3.436 1.717 4.887 3.556 4.836 7.619-0.191 29.416-0.095 58.879-0.095 88.319 0 20.659-11.441 32.198-31.932 32.221H378.538c-1.791 0-3.581-0.168-5.733-0.29 0-13.981 0.073-27.48 0-41.002-0.073-9.313-5.346-15.07-14.538-15.434-9.145-0.314-18.265-0.29-27.409 0-9.265 0.315-14.514 6.024-14.635 15.337-0.097 6.435-0.047 12.844-0.047 19.279v21.795c-1.936 0.146-3.291 0.314-4.621 0.314-54.646 0-109.316 0-163.938-0.048-3.023 0-6.144-0.218-9.047-0.943-13.57-3.507-21.529-14.393-21.529-29.463-0.073-29.609 0.121-59.242-0.169-88.827-0.024-4.982 1.524-7.305 5.999-9.434 54.694-26.32 87.109-86.699 77.965-146.589-7.548-49.423-34.302-85.49-78.957-108.035-3.677-1.862-4.984-3.919-4.96-8.056 0.169-29.271 0.073-58.538 0.073-87.808 0.048-20.974 11.321-32.441 32.173-32.49 53.824-0.047 107.646 0 161.445 0 1.766 0 3.556 0.219 5.564 0.34 0 13.74-0.025 26.972 0.047 40.133 0 10.835 5.274 16.157 16.208 16.278 7.91 0.121 15.845 0.097 23.803 0 11.466-0.072 16.571-5.347 16.571-16.933 0.028-12.989 0.003-26.026 0.003-39.55z m0 340.983c0-13.498 0.024-27.046 0-40.543 0-10.546-5.297-15.966-15.796-16.183-8.418-0.17-16.885-0.17-25.328 0.024-10.184 0.192-15.458 5.684-15.458 15.94-0.072 27.045-0.047 54.09 0 81.11 0 10.62 5.323 16.038 15.772 16.135a1406.38 1406.38 0 0 0 24.819 0c10.547-0.097 15.941-5.467 15.99-15.894 0.074-13.545 0.001-27.067 0.001-40.589z m-56.629-170.079c0 13.329-0.025 26.705 0.047 40.058 0.049 10.524 5.323 15.87 15.894 15.968 8.635 0.096 17.247 0.121 25.859-0.025 9.265-0.168 14.78-5.733 14.829-14.997 0.073-27.723 0.073-55.422 0-83.143-0.049-9.192-5.612-14.781-14.877-14.974-8.806-0.193-17.611-0.144-26.368 0-9.869 0.145-15.288 5.661-15.337 15.53-0.096 13.861-0.047 27.722-0.047 41.583z m0 0"  horiz-adv-x="1024" />

    
    <glyph glyph-name="woyaorongzi" unicode="&#58957;" d="M511.887-61.102c-246.862 0-447.675 199.968-447.675 445.75C64.212 630.433 265.025 830.4 511.887 830.4S959.56 630.433 959.56 384.649c0.001-245.783-200.811-445.751-447.673-445.751z m0 831.812c-213.928 0-387.985-173.183-387.985-386.062 0-212.877 174.057-386.06 387.985-386.06 213.928 0 387.984 173.183 387.984 386.06 0 212.879-174.056 386.062-387.984 386.062z m0-595.559c-22.821 0-44.301 8.86-60.477 24.949L326.667 324.318c-16.176 16.088-25.094 37.539-25.094 60.33 0 22.792 8.918 44.243 25.123 60.332L451.41 569.198c32.439 32.118 88.66 32.089 120.924 0L697.105 444.98c16.177-16.088 25.096-37.54 25.096-60.332 0-22.791-8.919-44.242-25.124-60.33L572.364 200.101c-16.176-16.089-37.656-24.95-60.477-24.95z m0 359.276c-6.937 0-13.466-2.681-18.362-7.578L368.812 402.662c-4.868-4.81-7.549-11.222-7.549-18.013 0-6.789 2.681-13.202 7.52-18.011L493.554 242.42c9.793-9.793 26.873-9.793 36.666 0l124.742 124.218c4.867 4.809 7.55 11.222 7.55 18.011 0 6.792-2.683 13.204-7.521 18.013L530.22 526.879c-4.868 4.867-11.367 7.548-18.333 7.548z"  horiz-adv-x="1024" />

    
    <glyph glyph-name="xiangxiazhankai" unicode="&#58958;" d="M913.303 704.216L513.34 64.279 113.372 704.216z"  horiz-adv-x="1024" />

    
    <glyph glyph-name="xianjin" unicode="&#58959;" d="M267.659 415.921c-17.323 0-32.005-14.455-32.005-31.588 0-17.959 14.682-32.104 32.005-32.104 17.549 0 32.023 14.145 32.023 32.104 0 17.133-14.474 31.588-32.023 31.588z m488.999 0c-17.125 0-31.806-14.455-31.806-31.588 0-17.959 14.681-32.104 31.806-32.104 17.949 0 32.023 14.145 32.023 32.104 0.001 17.133-14.074 31.588-32.023 31.588z m82.187 226.056H185.689c-48.121 0-87.685-39.546-87.685-87.468v-340.554c0-48.234 39.564-87.781 87.685-87.781h653.155c47.923 0 87.886 39.547 87.886 87.781V554.509c0 47.401-39.962 87.468-87.885 87.468z m24.264-341.666c-10.398 4.797-21.208 6.848-33.038 6.848-23.649 0-44.655-9.697-59.746-24.674-14.882-15.117-24.665-36.213-24.665-59.25 0-12.234 2.441-23.145 6.724-33.537H272.15c4.492 10.393 6.734 21.303 6.734 33.537a83.867 83.867 0 0 1-24.474 59.25c-15.291 14.977-36.089 24.674-59.546 24.674-11.416 0-23.041-2.051-33.031-6.848V468.048c9.991-4.309 21.615-7.262 33.031-7.262 22.64 0 43.431 9.278 58.112 23.769l1.434 1.321c15.091 14.873 24.474 36.419 24.474 59.25 0 11.815-2.242 23.144-6.734 33.222h480.234c-4.282-10.078-6.724-21.406-6.724-33.222 0-22.831 9.783-44.377 24.665-59.25 15.091-15.395 36.097-25.09 59.746-25.09 11.224 0 22.64 2.953 33.038 7.262v-167.737zM650.095 507.803c-32.892 32.84-78.876 53.204-130.316 53.204-50.451 0-95.706-19.981-128.597-52.301l-1.477-0.903c-31.406-31.623-52.179-75.548-52.179-123.471 0-48.436 20.772-92.362 52.179-124.09 32.883-32.926 79.137-52.926 130.074-52.926 50.693 0 96.442 19.498 129.343 51.711l0.974 1.215c31.893 31.729 52.178 75.654 52.178 124.09-0.002 47.923-20.287 91.848-52.179 123.471z m-23.631-1.181l-68.747-115.618h54.107v-37.838h-68.649v-28.494h68.649v-37.982h-68.649v-45.385h-45.02V286.69h-70.937v37.982h70.937v28.494h-70.937v37.838h55.506l-67.859 115.618h50.024l47.453-87.886c2.623-5.455 5.612-12.371 8.947-20.815h0.723c2.389 6.775 5.48 14.004 9.304 21.718l47.634 86.983h47.514z"  horiz-adv-x="1024" />

    
    <glyph glyph-name="xuanzeriqi" unicode="&#58960;" d="M859.488-32.219h-694.67c-36.953 0-67.006 33.974-67.006 75.717V645.056c0 41.743 30.053 75.689 67.006 75.689h77.316v-55.84h-77.316c-5.875 0-12.442-8.479-12.442-19.849v-601.558c0-11.368 6.566-19.876 12.442-19.876h694.67c5.9 0 12.496 8.508 12.496 19.876V645.056c0 11.37-6.596 19.849-12.496 19.849h-64.103v55.84h64.103c36.979 0 67.059-33.946 67.059-75.689v-601.558c0-41.743-30.079-75.717-67.059-75.717zM381.235 720.745h274.997v-55.84H381.235zM701.871 799.215h54.563v-206.237h-54.563zM279.86 799.215h54.564v-206.237H279.86zM222.259 456.378h159.029v-55.841H222.259zM432.655 456.378h158.969v-55.841H432.655zM649.678 456.378h158.977v-55.841H649.678zM222.259 317h159.029v-55.84H222.259zM432.655 317h158.969v-55.84H432.655zM649.678 317h158.977v-55.84H649.678zM222.259 177.617h159.029v-55.839H222.259zM432.655 177.617h158.969v-55.839H432.655zM649.678 177.617h158.977v-55.839H649.678z"  horiz-adv-x="1024" />

    
    <glyph glyph-name="yidong" unicode="&#58961;" d="M820.063 796.009H203.699c-58.513 0-105.932-47.398-105.932-105.932v-616.364c0-58.535 47.419-105.932 105.932-105.932h616.364c58.511 0 105.932 47.396 105.932 105.932V690.077c0 58.534-47.421 105.932-105.932 105.932zM455.171 625.833c0 32.676 19.365 50.054 58.235 52.134 32.63-4.136 51.07-21.444 55.184-52.134v-303.422c-4.113-32.698-22.554-50.101-55.184-52.086-36.79 1.985-56.248 19.388-58.235 52.086V625.833z m58.235-517.941c-38.87 2.032-59.298 20.403-61.286 55.184 1.988 36.744 22.416 57.149 61.286 61.286 36.789-4.137 57.172-24.542 61.331-61.286-4.159-34.781-24.542-53.152-61.331-55.184z"  horiz-adv-x="1024" />

    
    <glyph glyph-name="xiaofeige" unicode="&#58962;" d="M913.267 228.671s62.47 74.157 43.155 178.075c0 0-99.524-114.521-223.653-95.429 0-0.001 50.635-108.062 180.498-82.646zM689.194 355.333s-29.057 337.658-313.829 337.658c-140.539 0-210.907-61.732-238.415-142.458l-67.809-10.187 37.62-47.191-40.056-23.153 56.54-32.576c3.765-67.158 25.392-134.573 53.244-183.955 67.883-120.24 327.064-310.997 715.765-45.738 0.001 0-164.086-37.866-203.06 147.6z m-400.509 91.715c-30.189 0-54.597 24.456-54.597 54.571 0 30.14 24.407 54.572 54.597 54.572 30.091 0 54.499-24.432 54.499-54.572 0-30.116-24.408-54.571-54.499-54.571z"  horiz-adv-x="1024" />

    
    <glyph glyph-name="yingyongshangdian" unicode="&#58963;" d="M140.743-32.219V233.135h51.396v-211.688h642.899V233.135h51.286v-265.354H140.743z m91.765 351.878c-5.513 0-10.97 0.322-16.212 0.972-56.367 7.135-106.898 43.127-131.92 93.942-14.537 29.616-19.239 62.933-13.186 93.739 6.702 27.156 20.59 55.367 34.047 82.658l20.807 42.371c10.269 20.888 20.536 40.045 30.805 59.177 10.593 19.699 58.637 105.331 58.637 105.331h604.689c33.993-69.067 68.418-138.783 108.952-207.418 2.809-9.106 6.323-18.077 9.889-27.021 3.405-8.701 6.811-17.375 10.215-27.778 6.432-19.671 6.432-46.018 0-65.608-7.242-71.877-55.718-129.72-118.247-142.472-13.943-4.594-27.616-6.811-41.829-6.811-49.287 0-98.845 25.616-129.325 66.893l-7.053 9.54-7.539-9.214c-35.562-43.333-82.309-67.219-131.649-67.219-49.396 0-96.143 23.886-131.703 67.219l-7.729 9.43-6.972-9.945c-28.05-39.902-83.444-67.786-134.677-67.786zM222.24 706.19c-30.967-47.099-51.234-82.091-70.905-122.165-14.051-21.347-21.293-43.37-28.21-64.663-7.836-54.502 21.671-114.059 66.797-136.917 11.998-6.124 26.211-9.34 41.073-9.34 40.694 0 80.308 22.849 96.413 55.544 19.888 26.861 21.51 54.936 21.618 86.876h51.34c0.162-27.455 1.459-59.746 14.754-86.876 21.347-32.586 59.88-53.059 98.736-53.059 18.808 0 37.182 4.857 53.071 14.094 43.775 22.32 70.094 77.066 61.88 125.84h48.151c-4.215-45.262 13.565-91.685 45.884-117.923 18.05-13.78 45.287-21.929 72.957-21.929 21.402 0 40.749 4.856 55.937 14.092 32.317 24.672 52.691 63.286 52.691 98.9v21.185c-7.403 23.915-14.646 45.91-29.13 67.986-13.456 27.643-29.453 54.692-44.91 80.823-15.239 25.886-31.074 52.664-44.802 80.659l-2.432 4.891H245.775c0 0.002-17.375-31.776-23.535-38.018z"  horiz-adv-x="1024" />

    
    <glyph glyph-name="xialahuifu" unicode="&#58964;" d="M730.271 404.351h75.65v-12.144h-75.65zM730.271 425.191h75.65v-11.983h-75.65zM735.684 361.836c10.614-8.201 22.48-14.934 35.614-20.186 13.236 5.471 23.843 12.195 31.834 20.186h-67.448zM64.212 510.369v-153.916c0-32.955 24.957-59.676 55.734-59.676l380.849-40.254L903.6 296.777c30.777 0 55.733 26.721 55.733 59.676V510.369H64.212z m504.904-70.9c2.951-8.865 5.85-20.025 8.698-33.479l-8.865-2.134c-2.295 11.494-5.085 22.428-8.37 32.824l8.537 2.789z m-154.424 2.462H452.6c-1.967 7.656-4.647 15.808-8.042 24.454l11.983 1.967c2.95-7.984 5.521-16.798 7.714-26.421h37.085v-11.327h-86.649v11.327z m32.657-94.861l-10.992-2.797a816.802 816.802 0 0 1-13.622 70.414l10.832 3.446c5.251-20.79 9.848-44.483 13.782-71.063zM335.917 448h-71.22v-24.781c20.353-10.17 41.026-21.985 62.035-35.448l-7.059-10.506c-21.555 14.338-39.875 25.5-54.976 33.483v-93.223h-11.975V448h-62.691v11.655h145.886V448z m55.967-113.568c0-10.176-4.874-15.262-14.605-15.262h-14.773l-2.623 11.488c6.126-0.438 10.556-0.656 13.294-0.656 4.48 0 6.723 2.455 6.723 7.379v39.717c-7.765-2.951-15.093-5.521-21.984-7.709l-2.958 11.816c8.21 2.071 16.521 4.654 24.942 7.717V426.83h-22.479v11.321H379.9v29.707h11.983v-29.707h18.219v-11.321h-18.219v-32.984c5.471 2.521 11.757 5.74 18.874 9.688v-11.983c-6.68-3.503-12.966-6.628-18.874-9.37v-47.749z m113.231-9.682h-94.684v11.488h50.54c7.438 21.992 14.059 49.896 19.857 83.701l11.327-2.958c-5.251-30.19-11.655-57.113-19.202-80.744h32.161v-11.487z m26.748 64.667l-9.353 2.623c3.824 13.898 6.01 28.773 6.563 44.639l9.026-0.656c-0.437-16.084-2.52-31.614-6.236-46.606z m25.438-71.063h-11.487V468.025h11.487v-149.671z m2.295 36.919c15.313 17.832 26.588 44.043 33.808 78.616h-16.252v11.16h18.387c1.311 7.219 2.462 14.875 3.445 22.976h10.991c-0.982-8.21-2.134-15.866-3.445-22.976h64.658v-11.16h-66.792c-7.874-38.396-20.404-67.458-37.581-87.155l-7.219 8.539z m109.129 55.313c-1.967-14.555-5.907-28.508-11.814-41.852l-10.177 3.277c6.017 12.583 10.177 26.206 12.471 40.875l9.52-2.3z m-49.724-2.623c-2.731-15.428-7.438-29.875-14.11-43.338l-10.177 3.615c7.001 13.018 11.926 27.027 14.767 42.018l9.52-2.295z m47.757-90.272c-14.772 13.455-25.933 30.135-33.479 50.053-7.546-22.422-21.664-39.061-42.338-49.885l-6.563 8.697c29.101 14.221 43.816 41.406 44.144 81.567V425.52h11.16v-14.933c0-8.757-0.714-17.396-2.135-25.939 7.438-24.29 19.748-43.651 36.926-58.091l-7.715-8.866z m168.534 0.663c-24.286 1.195-45.673 5.363-64.161 12.473-19.034-7.109-42.447-11.494-70.237-13.135l-4.757 10.338c23.849 0.99 44.195 3.941 61.045 8.865-11.161 5.471-21.17 12.033-30.028 19.689-7.115-4.809-14.772-9.135-22.975-12.967l-6.075 10.018c18.816 7.547 32.655 17.227 41.521 29.043h-21.008v49.078c-5.799-6.672-12.144-12.581-19.036-17.723l-7.058 9.186c16.959 12.805 28.446 28.336 34.463 46.605l11.647-1.966c-1.42-4.152-2.898-8.042-4.429-11.648h96.004v-10.337H728.792a114.82 114.82 0 0 0-7.882-11.327h96.499v-51.867h-64.984c-1.976-3.178-4.706-6.893-8.21-11.16h73.522v-8.531c-8.102-10.285-18.933-18.932-32.496-25.924 15.757-4.605 33.37-7.229 52.841-7.883l-2.79-10.827z"  horiz-adv-x="1024" />

    
    <glyph glyph-name="xiecheng" unicode="&#58965;" d="M855.402 254.223c-53.447 11.309-78.57-34.805-81.775-58.786-3.207-23.979-24.287-71.962-24.287-71.962-69.59-104.768-188.523-145.26-316.415-63.485-127.826 81.734-77.649 299.42-77.649 299.42-29.162-72.796-51.034-148.886 5.622-264.482C417.553-20.687 579.395-54.11 579.395-54.11 311.51-46.82 284.04 195.437 284.04 195.437c-8.104 218.791 151.301 291.038 172.36 300.129 21.015 9.026 31.556 8.719 34.827-4.94 3.207-13.615-8.125-34.082-16.228-47.851-8.059-13.746-5.643-25.911 20.269-19.609 25.913 6.325 71.193 43.084 84.918 83.666 13.791 40.582 62.343 75.936 106.042 87.398 43.698 11.419 103.562 25.21 103.562 25.21-31.534 6.742-71.191 28.086-76.881 46.664-5.621 18.644 10.542 12.737 10.542 12.737 14.579-13.176 55.029-51.562 115.727-47.5 60.696 4.02 58.278 34.763 58.278 34.763 0 46.159-86.607 42.931-86.607 42.931C774.396 847.379 644.944 847.379 537.32 819.314c-107.602-28.107-178.861-99.212-178.861-99.212-25.89 6.214-70.38 11.55-116.495 0-46.116-11.595-99.542-57.249-110.895-89.573-11.31-32.346 4.853-29.974 17.019-23.497 12.121 6.521 59.071 25.934 72.817 6.521 13.746-19.478 0-45.346 0-45.346-54.658-98.621-67.174-199.114-67.174-199.114-8.125-190.939 104.395-303.109 104.395-303.109 155.385-172.008 373.861-125.761 373.861-125.761 199.92 45.323 246.059 186.919 253.326 208.725 7.246 21.806 23.453 93.921-29.911 105.275zM666.465 777.745c41.041-2.502 40.733-37.967 40.733-37.967l0.021-1.823c-11.242 30.041-31.291 23.453-39.46 20.379-8.214-3.03-20.973-26.681-6.369-40.12 18.469-17.107 42.055 3.776 42.055 3.776-9.443-23.497-29.162-23.232-32.37-23.232-3.206 0-41.941 3.228-41.941 40.559 0 38.978 37.331 38.428 37.331 38.428zM781.422 329.346s-53.384 0.22-55.863-68.953c0 0 5.575-131.098-74.576-186.941-80.064-55.82-190.146-42.271-241.971 7.204 0 0 4.699-5.929 13.922-14.449 3.271-2.417 6.609-4.788 10.189-7.072 127.826-81.712 246.824-41.283 316.435 63.528 0 0 20.995 47.917 24.267 71.941 2.898 21.87 24.09 62.211 68.339 60.476 0.417 1.735 0.768 3.513 1.185 5.313-0.001 0 7.267 68.711-61.927 68.953z"  horiz-adv-x="1024" />

    
    <glyph glyph-name="youjian" unicode="&#58966;" d="M767.279 213.37a17.128 17.128 0 0 0-12.097 4.974L603.348 368.416c-6.755 6.669-6.821 17.56-0.136 24.313 6.669 6.753 17.557 6.854 24.326 0.135l151.838-150.061c6.753-6.669 6.82-17.57 0.134-24.326a17.176 17.176 0 0 0-12.231-5.107zM260.428 213.405a17.243 17.243 0 0 0-12.247 5.105c-6.669 6.771-6.602 17.656 0.151 24.344L400.27 392.88c6.77 6.687 17.64 6.602 24.343-0.151 6.67-6.771 6.602-17.644-0.151-24.33L272.524 218.361a17.17 17.17 0 0 0-12.096-4.956zM857.024 73.863H170.683c-38.539 0-69.887 32.661-69.887 72.795V495.914c0 9.508 7.695 17.203 17.203 17.203 9.509 0 17.203-7.694 17.203-17.203v-349.256c0-21.168 15.91-38.389 35.481-38.389h686.341c19.622 0 35.581 17.221 35.581 38.389V620.485c0 21.185-15.959 38.421-35.581 38.421H170.683c-9.676 0-19.067-4.435-25.788-12.164-6.215-7.207-17.119-7.963-24.259-1.714-7.174 6.233-7.946 17.085-1.713 24.259 13.255 15.271 32.122 24.024 51.76 24.024h686.341c38.588 0 69.987-32.676 69.987-72.827v-473.827c0.001-40.133-31.399-72.794-69.987-72.794zM513.854 310.405c-18.598 0-37.194 6.52-51.357 19.572L123.694 641.3c-6.989 6.434-7.459 17.304-1.025 24.308 6.435 7.023 17.321 7.443 24.31 1.025l338.819-311.338c15.221-14.028 40.907-14.011 56.095-0.017l338.399 310.867c6.989 6.436 17.875 5.999 24.309-1.023 6.436-7.006 5.965-17.875-1.024-24.31L565.193 329.961c-14.143-13.036-32.743-19.556-51.339-19.556z"  horiz-adv-x="1024" />

    
    </font>
</defs>
</svg>
